<svg width="27" height="27" viewBox="0 0 27 27" fill="none" xmlns="http://www.w3.org/2000/svg">
<path d="M6.2998 11.7C6.2998 8.30589 6.2998 6.60883 7.35422 5.55442C8.40864 4.5 10.1057 4.5 13.4998 4.5C16.8939 4.5 18.591 4.5 19.6454 5.55442C20.6998 6.60883 20.6998 8.30589 20.6998 11.7V14.4C20.6998 17.7941 20.6998 19.4912 19.6454 20.5456C18.591 21.6 16.8939 21.6 13.4998 21.6C10.1057 21.6 8.40864 21.6 7.35422 20.5456C6.2998 19.4912 6.2998 17.7941 6.2998 14.4V11.7Z" stroke="black" stroke-width="0.837"/>
<path d="M18 21.6V22.5H17.1V21.6M9.9 21.6V22.5H9V21.6" stroke="black" stroke-width="0.837" stroke-linejoin="round"/>
<path d="M20.6998 13.05H6.2998" stroke="black" stroke-width="0.837"/>
<path d="M18 9.00002L18 10.8" stroke="black" stroke-width="0.837" stroke-linecap="round"/>
<path d="M18 15.3L18 17.1" stroke="black" stroke-width="0.837" stroke-linecap="round"/>
</svg>
