<svg width="29" height="29" viewBox="0 0 29 29" fill="none" xmlns="http://www.w3.org/2000/svg">
<path d="M25.471 11.5156V19.7805C25.471 21.1339 24.746 22.3905 23.5739 23.0793L16.3964 27.2239C15.2243 27.9005 13.7743 27.9005 12.5902 27.2239L5.41271 23.0793C4.24063 22.4026 3.51562 21.1459 3.51562 19.7805V11.5156C3.51562 10.1622 4.24063 8.90552 5.41271 8.21677L12.5902 4.0722C13.7623 3.39553 15.2123 3.39553 16.3964 4.0722L23.5739 8.21677C24.746 8.90552 25.471 10.1502 25.471 11.5156Z" stroke="#292D32" stroke-width="1.6" stroke-linecap="round" stroke-linejoin="round"/>
<path d="M14.4999 14.4399C16.0549 14.4399 17.3154 13.1794 17.3154 11.6244C17.3154 10.0695 16.0549 8.80908 14.4999 8.80908C12.9451 8.80908 11.6846 10.0695 11.6846 11.6244C11.6846 13.1794 12.9451 14.4399 14.4999 14.4399Z" stroke="#292D32" stroke-width="1.6" stroke-linecap="round" stroke-linejoin="round"/>
<path d="M19.3337 21.2793C19.3337 19.1043 17.1707 17.3401 14.5003 17.3401C11.8299 17.3401 9.66699 19.1043 9.66699 21.2793" stroke="#292D32" stroke-width="1.6" stroke-linecap="round" stroke-linejoin="round"/>
</svg>
