<svg width="28" height="29" viewBox="0 0 28 29" fill="none" xmlns="http://www.w3.org/2000/svg">
<g clip-path="url(#clip0_281_7363)">
<rect y="0.200195" width="28" height="28" rx="14" fill="#14161C"/>
<g clip-path="url(#clip1_281_7363)">
<g clip-path="url(#clip2_281_7363)">
<path d="M0 14.2002C0 6.46821 6.26801 0.200195 14 0.200195C21.732 0.200195 28 6.46821 28 14.2002C28 21.9322 21.732 28.2002 14 28.2002C6.26801 28.2002 0 21.9322 0 14.2002Z" fill="#14161C"/>
<path fill-rule="evenodd" clip-rule="evenodd" d="M11.872 7.06439C12.1649 6.7715 12.6398 6.7715 12.9327 7.06439L14.2773 8.40906L15.622 7.06439C15.9149 6.7715 16.3898 6.7715 16.6827 7.06439C16.9756 7.35728 16.9756 7.83216 16.6827 8.12505L15.0273 9.78038V13.1709L17.9655 11.4747L18.5544 9.27564C18.6616 8.87553 19.0728 8.63804 19.4729 8.74519C19.873 8.85235 20.1105 9.26357 20.0034 9.66369L19.5319 11.424L21.3328 11.8663C21.7351 11.9651 21.9811 12.3713 21.8823 12.7736C21.7835 13.1758 21.3773 13.4218 20.975 13.323L18.7224 12.7697L15.7779 14.4696L18.7226 16.1696L20.975 15.6163C21.3773 15.5175 21.7835 15.7635 21.8823 16.1658C21.9811 16.568 21.7351 16.9742 21.3328 17.073L19.5319 17.5153L20.0034 19.2756C20.1105 19.6758 19.873 20.087 19.4729 20.1941C19.0728 20.3013 18.6616 20.0638 18.5544 19.6637L17.9655 17.4645L15.0273 15.7683V19.1591L16.6827 20.8144C16.9756 21.1073 16.9756 21.5822 16.6827 21.8751C16.3898 22.168 15.9149 22.168 15.622 21.8751L14.2773 20.5304L12.9327 21.8751C12.6398 22.168 12.1649 22.168 11.872 21.8751C11.5791 21.5822 11.5791 21.1073 11.872 20.8144L13.5273 19.1591V15.7689L10.5911 17.464L10.002 19.6637C9.89483 20.0638 9.48361 20.3013 9.0835 20.1941C8.68338 20.087 8.44589 19.6758 8.55305 19.2756L9.02448 17.5153L7.22362 17.073C6.82136 16.9742 6.57536 16.568 6.67417 16.1658C6.77297 15.7635 7.17916 15.5175 7.58142 15.6163L9.83335 16.1694L12.7778 14.4696L9.83348 12.7699L7.58142 13.323C7.17916 13.4218 6.77297 13.1758 6.67417 12.7736C6.57536 12.3713 6.82136 11.9651 7.22362 11.8663L9.02448 11.424L8.55305 9.66369C8.44589 9.26357 8.68338 8.85235 9.0835 8.74519C9.48361 8.63804 9.89483 8.87553 10.002 9.27564L10.5911 11.4752L13.5273 13.1703V9.78038L11.872 8.12505C11.5791 7.83216 11.5791 7.35728 11.872 7.06439Z" fill="#FAFAFB"/>
</g>
</g>
</g>
<defs>
<clipPath id="clip0_281_7363">
<rect y="0.200195" width="28" height="28" rx="14" fill="white"/>
</clipPath>
<clipPath id="clip1_281_7363">
<rect width="28" height="28" fill="white" transform="translate(0 0.200195)"/>
</clipPath>
<clipPath id="clip2_281_7363">
<rect width="28" height="28" fill="white" transform="translate(0 0.200195)"/>
</clipPath>
</defs>
</svg>
