<svg width="22" height="25" viewBox="0 0 22 25" fill="none" xmlns="http://www.w3.org/2000/svg">
<path d="M4.64136 13.4359C4.64136 13.3763 4.64136 13.3465 4.64283 13.3213C4.66556 12.9319 4.94405 12.6217 5.29364 12.5964C5.31625 12.5948 5.34302 12.5948 5.39657 12.5948H16.4419C16.4955 12.5948 16.5223 12.5948 16.5449 12.5964C16.8945 12.6217 17.1729 12.9319 17.1957 13.3213C17.1971 13.3465 17.1971 13.3763 17.1971 13.4359C17.1971 13.7433 17.1971 13.897 17.1873 14.0691C17.0418 16.6235 15.0926 18.8776 12.8063 19.1355C12.6523 19.1529 12.5625 19.1566 12.3828 19.1642C11.8707 19.1856 11.3722 19.1987 10.9193 19.1987C10.4663 19.1987 9.96778 19.1856 9.45569 19.1642C9.27601 19.1566 9.18617 19.1529 9.03217 19.1355C6.74588 18.8776 4.79672 16.6235 4.65116 14.0691C4.64136 13.897 4.64136 13.7433 4.64136 13.4359Z" stroke="black" stroke-width="0.933513"/>
<path d="M6.73392 18.8102L6.03638 20.3641" stroke="black" stroke-width="0.933513" stroke-linecap="round"/>
<path d="M15.1045 18.8102L15.802 20.3641" stroke="black" stroke-width="0.933513" stroke-linecap="round"/>
<path d="M3.94385 12.5948H17.8947" stroke="black" stroke-width="0.933513" stroke-linecap="round"/>
<path d="M4.1746 13.3717C4.1746 13.6295 4.38357 13.8385 4.64136 13.8385C4.89914 13.8385 5.10811 13.6295 5.10811 13.3717H4.1746ZM7.84987 5.9903L8.28916 5.83254V5.83254L7.84987 5.9903ZM8.11433 6.72668L8.33681 7.137L8.11433 6.72668ZM6.98658 8.08258L7.4251 8.24246L6.98658 8.08258ZM9.92665 6.67283L9.7261 7.09431L9.92665 6.67283ZM6.97505 10.0632L6.53502 10.2188C6.5792 10.3437 6.67437 10.444 6.79681 10.4946C6.91924 10.5451 7.05741 10.5413 7.17686 10.4841L6.97505 10.0632ZM11.1329 8.06949L11.3347 8.49037C11.5498 8.38726 11.6525 8.13865 11.573 7.91383L11.1329 8.06949ZM5.10811 13.3717V6.67853H4.1746V13.3717H5.10811ZM6.30511 5.29217C6.76388 5.29217 7.21578 5.60561 7.41059 6.14806L8.28916 5.83254C7.97864 4.96788 7.20698 4.35865 6.30511 4.35865V5.29217ZM5.10811 6.67853C5.10811 5.86427 5.69008 5.29217 6.30511 5.29217V4.35865C5.08242 4.35865 4.1746 5.44589 4.1746 6.67853H5.10811ZM7.41059 6.14806L7.67504 6.88444L8.55361 6.56892L8.28916 5.83254L7.41059 6.14806ZM7.41508 9.90751C7.23381 9.3951 7.22247 8.79824 7.4251 8.24246L6.54806 7.9227C6.26874 8.68881 6.28387 9.50892 6.53502 10.2188L7.41508 9.90751ZM10.9311 7.64862L6.77324 9.6423L7.17686 10.4841L11.3347 8.49037L10.9311 7.64862ZM9.7261 7.09431C10.1684 7.30475 10.5115 7.71225 10.6929 8.22516L11.573 7.91383C11.322 7.20441 10.8267 6.58423 10.1272 6.25136L9.7261 7.09431ZM7.4251 8.24246C7.61519 7.7211 7.95305 7.34508 8.33681 7.137L7.89184 6.31636C7.29481 6.64008 6.81101 7.20148 6.54806 7.9227L7.4251 8.24246ZM8.33681 7.137C8.76642 6.90406 9.2634 6.87414 9.7261 7.09431L10.1272 6.25136C9.3796 5.89562 8.56823 5.94961 7.89184 6.31636L8.33681 7.137Z" fill="black"/>
</svg>
