<svg width="21" height="23" viewBox="0 0 21 23" fill="none" xmlns="http://www.w3.org/2000/svg">
<path d="M15.3459 17.0573V15.9449M5.58032 17.0573V15.9449" stroke="black" stroke-width="0.92244" stroke-linecap="round"/>
<path d="M3.48779 13.3491C3.48779 12.658 3.48779 12.3124 3.59399 12.0399C3.73558 11.6764 4.00717 11.3877 4.349 11.2371C4.60538 11.1242 4.9304 11.1242 5.58042 11.1242H15.346C15.9961 11.1242 16.3211 11.1242 16.5775 11.2371C16.9193 11.3877 17.1909 11.6764 17.3325 12.0399C17.4387 12.3124 17.4387 12.658 17.4387 13.3491C17.4387 14.0402 17.4387 14.3858 17.3325 14.6583C17.1909 15.0218 16.9193 15.3105 16.5775 15.4611C16.3211 15.574 15.9961 15.574 15.346 15.574H5.58042C4.9304 15.574 4.60538 15.574 4.349 15.4611C4.00717 15.3105 3.73558 15.0218 3.59399 14.6583C3.48779 14.3858 3.48779 14.0402 3.48779 13.3491Z" stroke="black" stroke-width="0.92244"/>
<path d="M16.7411 11.1243C16.7411 8.32747 16.7411 6.92906 15.9239 6.06019C15.1066 5.19133 13.7913 5.19133 11.1607 5.19133H9.76565C7.13505 5.19133 5.81975 5.19133 5.00253 6.06019C4.1853 6.92906 4.1853 8.32747 4.1853 11.1243" stroke="black" stroke-width="0.92244"/>
<path d="M14.9973 11.1242V10.0118C14.9973 8.61336 14.9973 7.91415 14.5887 7.47972C14.18 7.04529 13.5224 7.04529 12.2071 7.04529H8.71937C7.40407 7.04529 6.74642 7.04529 6.33781 7.47972C5.9292 7.91415 5.9292 8.61336 5.9292 10.0118V11.1242" stroke="black" stroke-width="0.92244"/>
<path d="M10.4634 7.41617V11.1243" stroke="black" stroke-width="0.92244"/>
</svg>
