<svg width="29" height="29" viewBox="0 0 29 29" fill="none" xmlns="http://www.w3.org/2000/svg">
<g clip-path="url(#clip0_14_1098)">
<rect x="0.769531" y="0.0996094" width="28" height="28" rx="14" fill="#8BC240"/>
<g clip-path="url(#clip1_14_1098)">
<g clip-path="url(#clip2_14_1098)">
<path d="M7.42578 17.7847V19.703" stroke="white" stroke-width="0.784766" stroke-linecap="round" stroke-linejoin="round"/>
<path d="M21.8125 17.7851V19.7035" stroke="white" stroke-width="0.784766" stroke-linecap="round" stroke-linejoin="round"/>
<path fill-rule="evenodd" clip-rule="evenodd" d="M9.8281 7.79883C9.46965 7.79883 9.12588 7.94122 8.87242 8.19469C8.61896 8.44815 8.47656 8.79192 8.47656 9.15037V11.9591C8.49357 11.6257 8.6335 11.3095 8.87066 11.0723C9.12412 10.8188 9.46789 10.6765 9.82634 10.6765H13.6629C14.0214 10.6765 14.3652 10.8188 14.6186 11.0723L14.6216 11.0753L14.6245 11.0723C14.878 10.8188 15.2218 10.6765 15.5802 10.6765H19.4169C19.7753 10.6765 20.1191 10.8188 20.3725 11.0723C20.626 11.3258 20.7684 11.6695 20.7684 12.028V13.4667C20.7684 13.6753 20.6056 13.8459 20.4001 13.8584C20.6069 13.8473 20.7712 13.6761 20.7712 13.4666V9.15037C20.7712 8.79192 20.6288 8.44815 20.3753 8.19469C20.1219 7.94122 19.7781 7.79883 19.4197 7.79883H9.8281ZM14.229 11.9992C14.2288 12.0088 14.2287 12.0184 14.2287 12.028V13.0744H9.25957V12.028C9.25957 11.8777 9.31928 11.7335 9.42557 11.6272C9.53186 11.5209 9.67603 11.4612 9.82634 11.4612H13.6629C13.8133 11.4612 13.9574 11.5209 14.0637 11.6272C14.1632 11.7267 14.2219 11.8593 14.229 11.9992ZM15.0145 13.0744H19.9836V12.028C19.9836 11.8777 19.9239 11.7335 19.8176 11.6272C19.7113 11.5209 19.5672 11.4612 19.4169 11.4612H15.5802C15.4299 11.4612 15.2857 11.5209 15.1794 11.6272C15.08 11.7267 15.0213 11.8593 15.0142 11.9991C15.0144 12.0088 15.0145 12.0184 15.0145 12.028V13.0744Z" fill="white"/>
<path d="M8.70466 13.4683H20.5342C20.8734 13.4683 21.1987 13.603 21.4385 13.8428C21.6784 14.0827 21.8131 14.408 21.8131 14.7471V17.7845H7.42578V14.7471C7.42578 14.408 7.56052 14.0827 7.80035 13.8428C8.04019 13.603 8.36548 13.4683 8.70466 13.4683Z" fill="white" stroke="white" stroke-width="0.784766" stroke-linecap="round" stroke-linejoin="round"/>
</g>
</g>
</g>
<defs>
<clipPath id="clip0_14_1098">
<rect x="0.769531" y="0.0996094" width="28" height="28" rx="14" fill="white"/>
</clipPath>
<clipPath id="clip1_14_1098">
<rect width="28" height="28" fill="white" transform="translate(0.769531 0.0996094)"/>
</clipPath>
<clipPath id="clip2_14_1098">
<rect width="28" height="28" fill="white" transform="translate(0.769531 0.0996094)"/>
</clipPath>
</defs>
</svg>
