<svg width="27" height="26" viewBox="0 0 27 26" fill="none" xmlns="http://www.w3.org/2000/svg">
<path d="M10.8999 6.06665H16.0999" stroke="black" stroke-width="1.3" stroke-linecap="round"/>
<path d="M13.5 6.06665V16.9C13.5 18.5752 14.8581 19.9333 16.5333 19.9333C18.2086 19.9333 19.5667 18.5752 19.5667 16.9V16.8518" stroke="black" stroke-width="0.806" stroke-linecap="round"/>
<path d="M16.9668 12.3067C16.9668 11.7323 17.4324 11.2667 18.0068 11.2667H21.1268C21.7012 11.2667 22.1668 11.7323 22.1668 12.3067V13.8667C22.1668 15.3026 21.0027 16.4667 19.5668 16.4667C18.1309 16.4667 16.9668 15.3026 16.9668 13.8667V12.3067Z" stroke="black" stroke-width="0.806"/>
<path d="M13.4998 6.06665V16.9C13.4998 18.5752 12.1417 19.9333 10.4664 19.9333C8.79118 19.9333 7.43311 18.5752 7.43311 16.9V16.8518" stroke="black" stroke-width="0.806" stroke-linecap="round"/>
<path d="M10.0335 12.0096C10.0335 11.5993 9.70091 11.2667 9.29064 11.2667H5.57635C5.16608 11.2667 4.8335 11.5993 4.8335 12.0096V13.8667C4.8335 15.3026 5.99756 16.4667 7.4335 16.4667C8.86944 16.4667 10.0335 15.3026 10.0335 13.8667V12.0096Z" stroke="black" stroke-width="0.806"/>
</svg>
