<svg width="28" height="30" viewBox="0 0 28 30" fill="none" xmlns="http://www.w3.org/2000/svg">
<g clip-path="url(#clip0_281_7491)">
<g clip-path="url(#clip1_281_7491)">
<path d="M0 14.6421C0 6.91011 6.26801 0.64209 14 0.64209C21.732 0.64209 28 6.91011 28 14.6421C28 22.3741 21.732 28.6421 14 28.6421C6.26801 28.6421 0 22.3741 0 14.6421Z" fill="#14161C"/>
<path d="M16.2773 11.5884V8.59155C16.2773 8.03926 15.8296 7.59155 15.2773 7.59155H13.2773C12.7251 7.59155 12.2773 8.03926 12.2773 8.59155V11.5884L6.66734 17.194C6.54356 17.3178 6.44541 17.4648 6.3785 17.6265C6.31158 17.7883 6.27721 17.9616 6.27734 18.1366V19.5821C6.27734 19.7588 6.34758 19.9282 6.47261 20.0532C6.59763 20.1781 6.7672 20.2483 6.94401 20.2483H21.6107C21.7875 20.2483 21.9571 20.1781 22.0821 20.0532C22.2071 19.9282 22.2773 19.7588 22.2773 19.5821V18.1366C22.2775 17.9616 22.2431 17.7883 22.1762 17.6265C22.1093 17.4648 22.0111 17.3178 21.8873 17.194L16.2773 11.5884Z" fill="white"/>
</g>
</g>
<defs>
<clipPath id="clip0_281_7491">
<rect width="28" height="29" fill="white" transform="translate(0 0.200195)"/>
</clipPath>
<clipPath id="clip1_281_7491">
<rect width="28" height="29" fill="white" transform="translate(0 0.200195)"/>
</clipPath>
</defs>
</svg>
