<svg width="28" height="29" viewBox="0 0 28 29" fill="none" xmlns="http://www.w3.org/2000/svg">
<g clip-path="url(#clip0_281_7378)">
<rect y="0.200195" width="28" height="28" rx="14" fill="#14161C"/>
<g clip-path="url(#clip1_281_7378)">
<g clip-path="url(#clip2_281_7378)">
<path d="M0 14.2002C0 6.46821 6.26801 0.200195 14 0.200195C21.732 0.200195 28 6.46821 28 14.2002C28 21.9322 21.732 28.2002 14 28.2002C6.26801 28.2002 0 21.9322 0 14.2002Z" fill="#14161C"/>
<path d="M14.4956 22.4614C18.9093 22.4614 22.4873 18.8834 22.4873 14.4697C22.4873 10.056 18.9093 6.47797 14.4956 6.47797C10.0819 6.47797 6.50391 10.056 6.50391 14.4697C6.50391 18.8834 10.0819 22.4614 14.4956 22.4614Z" fill="white"/>
<path d="M14.4958 20.3776C17.7587 20.3776 20.4037 17.7325 20.4037 14.4697C20.4037 11.2068 17.7587 8.56177 14.4958 8.56177C11.233 8.56177 8.58789 11.2068 8.58789 14.4697C8.58789 17.7325 11.233 20.3776 14.4958 20.3776Z" stroke="#202127"/>
<path d="M19.731 7.61251L19.5221 7.04796C19.2966 6.43853 18.4346 6.43852 18.2091 7.04796L18.0002 7.61251C17.747 8.29681 17.2074 8.83633 16.5231 9.08955L15.9586 9.29845C15.3492 9.52396 15.3491 10.386 15.9586 10.6115L16.5231 10.8204C17.2074 11.0736 17.747 11.6131 18.0002 12.2974L18.2091 12.862C18.4346 13.4714 19.2966 13.4714 19.5221 12.862L19.731 12.2974C19.9842 11.6131 20.5237 11.0736 21.208 10.8204L21.7726 10.6115C22.382 10.386 22.382 9.52396 21.7726 9.29845L21.208 9.08955C20.5237 8.83633 19.9842 8.29681 19.731 7.61251Z" fill="white" stroke="#14161C"/>
</g>
</g>
</g>
<defs>
<clipPath id="clip0_281_7378">
<rect y="0.200195" width="28" height="28" rx="14" fill="white"/>
</clipPath>
<clipPath id="clip1_281_7378">
<rect width="28" height="28" fill="white" transform="translate(0 0.200195)"/>
</clipPath>
<clipPath id="clip2_281_7378">
<rect width="28" height="28" fill="white" transform="translate(0 0.200195)"/>
</clipPath>
</defs>
</svg>
