<svg width="25" height="24" viewBox="0 0 25 24" fill="none" xmlns="http://www.w3.org/2000/svg">
<path d="M12.8749 0C7.63493 0 3.19493 3.36 1.55493 8H24.1949C22.5549 3.36 18.1149 0 12.8749 0Z" fill="#ED4C5C"/>
<path d="M12.8749 24C18.1149 24 22.5549 20.68 24.1949 16H1.55493C3.19493 20.68 7.63493 24 12.8749 24Z" fill="#3E4347"/>
<path d="M1.555 8C1.115 9.24 0.875 10.6 0.875 12C0.875 13.4 1.115 14.76 1.555 16H24.195C24.635 14.76 24.875 13.4 24.875 12C24.875 10.6 24.635 9.24 24.195 8H1.555Z" fill="#F9F9F9"/>
<path d="M12.3148 9.24001C12.4348 9.16001 12.5148 9.24001 12.5948 9.32001C12.6348 9.40001 12.6348 9.64001 12.5548 9.92001C12.5148 10.08 12.3948 10.24 12.3148 10.36C12.4748 10.36 12.6748 10.32 12.8748 10.24C13.0748 10.32 13.2348 10.36 13.4348 10.36C13.3548 10.2 13.2748 9.88001 13.3148 9.64001C13.3148 9.28001 13.2748 9.16001 13.1948 9.08001C13.1148 9.00001 12.9148 8.96001 12.7948 8.96001C12.7148 8.96001 12.7148 9.00001 12.7148 9.00001C12.5548 8.96001 12.4348 8.96001 12.3548 9.00001C12.2748 9.08001 12.2748 9.28001 12.3148 9.24001Z" fill="white"/>
<path d="M14.9949 10.44C14.9149 10 14.4749 10.12 14.1149 10.32C13.9549 10.4 13.7949 10.48 13.6349 10.48H13.5149C13.3149 10.48 13.0749 10.44 12.8749 10.36C12.6749 10.44 12.4349 10.48 12.2349 10.48H12.1549C11.9549 10.48 11.7949 10.4 11.6349 10.28C11.3149 10.12 10.8749 10 10.7549 10.4C10.8349 10.36 10.9149 10.28 10.9549 10.28L10.7949 14.12L10.8749 14.04L11.0349 10.32C11.0749 10.36 11.2349 10.52 11.2749 10.52L11.1549 13.76L11.2749 13.64L11.3949 10.56C11.4349 10.6 11.5549 10.68 11.5949 10.72L11.4749 13.4L11.7949 13.12L12.1149 12.04C11.8349 11.44 11.8749 10.92 11.8749 10.92H11.9549C12.1549 10.92 12.5949 10.8 12.7949 10.68C12.8349 10.68 12.8349 10.64 12.8749 10.64C12.8749 10.68 12.9149 10.68 12.9549 10.72C13.1549 10.84 13.5949 10.96 13.7949 10.96H13.8749C13.8749 10.96 13.9149 11.48 13.6349 12.08L13.9149 13.12L14.2349 13.4L14.1149 10.76C14.1549 10.72 14.2349 10.64 14.3149 10.6L14.4349 13.6L14.5549 13.72L14.4349 10.52C14.4749 10.48 14.6349 10.36 14.6749 10.32L14.8349 14L14.9149 14.08L14.7549 10.28C14.7949 10.32 14.9149 10.4 14.9949 10.44Z" fill="white"/>
<path d="M12.5149 11.08V12.64C12.5149 12.64 12.5149 12.68 12.5549 12.68C12.5949 12.76 12.6749 12.8 12.7149 12.88L12.8349 13L12.9549 12.88L13.1549 12.68V11.16C13.0349 11.12 12.9149 11.08 12.8349 11C12.7949 10.96 12.6749 11 12.5149 11.08Z" fill="white"/>
<path d="M14.5951 14.36C14.5951 14.16 14.3951 14.16 14.2351 14.2C14.1951 14.2 14.1951 14.2 14.1551 14.24L13.9151 13.36L15.2351 14.64L15.0751 10.48C15.0351 9.84001 14.5151 10 14.1551 10.24C13.9551 10.36 13.7951 10.44 13.5951 10.44C13.3151 9.96001 13.4751 9.32001 13.2751 9.16001C13.1951 9.08001 12.9151 8.96001 12.7151 8.96001C12.5951 8.96001 12.6351 9.04001 12.6351 9.04001C12.4351 9.00001 12.2751 9.00001 12.1951 9.08001C12.1151 9.12001 12.1951 9.52001 12.2351 9.44001C12.3551 9.32001 12.3951 9.36001 12.4751 9.48001C12.5551 9.60001 12.3951 10.08 12.1951 10.44C11.9551 10.44 11.7551 10.36 11.5551 10.24C11.1551 10 10.6351 9.88001 10.6351 10.48L10.4751 14.6L11.7951 13.36L11.5551 14.2C11.5151 14.2 11.5151 14.2 11.4751 14.16C11.3151 14.12 11.1151 14.12 11.1151 14.32C10.8751 14.28 10.7951 14.64 11.0351 14.72C11.0351 14.84 11.0351 14.92 11.1951 14.92C11.5551 15.04 12.1951 15.08 12.8351 15.08C13.4751 15.08 14.1151 15.04 14.4751 14.92C14.6351 14.88 14.6351 14.8 14.6351 14.72C14.9551 14.64 14.8351 14.28 14.5951 14.36ZM12.5551 12.64C12.5551 12.6 12.5551 12.6 12.5551 12.64L12.5151 12.6V11.08C12.6751 11.04 12.7951 11 12.8751 10.92C12.9551 11 13.0751 11.04 13.1951 11.08V12.6C13.1151 12.68 13.0751 12.76 12.9951 12.8L12.8751 12.92L12.7551 12.8C12.6751 12.76 12.6351 12.68 12.5551 12.64ZM12.5551 9.96001C12.6351 9.68001 12.6351 9.44001 12.5951 9.36001C12.5151 9.28001 12.4351 9.20001 12.3151 9.28001C12.2751 9.32001 12.2751 9.12001 12.3551 9.08001C12.4351 9.04001 12.5551 9.04001 12.7151 9.08001C12.7151 9.08001 12.7151 9.00001 12.7951 9.04001C12.9151 9.04001 13.1551 9.12001 13.1951 9.16001C13.2351 9.20001 13.3151 9.36001 13.3151 9.72001C13.3151 9.96001 13.3551 10.28 13.4351 10.44C13.2751 10.44 13.0751 10.4 12.8751 10.32C12.6751 10.4 12.5151 10.44 12.3151 10.44C12.3951 10.28 12.5151 10.12 12.5551 9.96001ZM11.5151 13.52L11.6351 10.84C11.5951 10.8 11.5151 10.72 11.4351 10.68L11.2751 13.72L11.1551 13.84L11.2751 10.6C11.2351 10.56 11.0751 10.44 11.0351 10.4L10.8751 14.12L10.7951 14.2L10.9551 10.36C10.9151 10.36 10.7951 10.4 10.7551 10.48C10.8751 10.08 11.3151 10.2 11.6351 10.4C11.7951 10.52 11.9951 10.56 12.1551 10.6H12.2351C12.4351 10.6 12.6351 10.56 12.8751 10.48C13.1151 10.56 13.3151 10.6 13.5151 10.6H13.6351C13.7951 10.56 13.9551 10.52 14.1151 10.44C14.4751 10.24 14.9151 10.12 14.9951 10.56C14.9151 10.52 14.7951 10.44 14.7551 10.44L14.9151 14.24L14.8351 14.16L14.6751 10.4C14.6351 10.44 14.4751 10.6 14.4351 10.6L14.5551 13.8L14.4351 13.68L14.3151 10.68C14.2751 10.72 14.1551 10.8 14.1151 10.84L14.2351 13.48L13.9151 13.2L13.6351 12.16C13.9151 11.56 13.8751 11.04 13.8751 11.04H13.7951C13.5951 11.04 13.1551 10.96 12.9551 10.8C12.9151 10.8 12.9151 10.76 12.8751 10.72C12.8751 10.72 12.8351 10.76 12.7951 10.76C12.5951 10.88 12.1551 11 11.9551 11H11.8751C11.8751 11 11.8351 11.52 12.1151 12.12L11.7951 13.2L11.5151 13.52ZM12.8751 14.32H12.4351L12.7151 12.96C12.7551 13 12.7951 13.04 12.8751 13.08C12.9151 13.04 12.9951 13 13.0351 12.96L13.3551 14.32H12.8751Z" fill="#C09300"/>
</svg>
