<svg width="28" height="29" viewBox="0 0 28 29" fill="none" xmlns="http://www.w3.org/2000/svg">
<g clip-path="url(#clip0_281_7394)">
<rect y="0.200195" width="28" height="28" rx="14" fill="#14161C"/>
<g clip-path="url(#clip1_281_7394)">
<g clip-path="url(#clip2_281_7394)">
<path d="M0 14.2002C0 6.46821 6.26801 0.200195 14 0.200195C21.732 0.200195 28 6.46821 28 14.2002C28 21.9322 21.732 28.2002 14 28.2002C6.26801 28.2002 0 21.9322 0 14.2002Z" fill="#14161C"/>
<path d="M18.1601 7.10791H10.832C10.0036 7.10791 9.33203 7.77948 9.33203 8.60791V20.1548C9.33203 20.9832 10.0036 21.6548 10.832 21.6548H18.1601C18.9886 21.6548 19.6601 20.9832 19.6601 20.1548V8.60791C19.6601 7.77948 18.9886 7.10791 18.1601 7.10791Z" fill="white"/>
<path d="M14.2363 9.72977C14.3518 9.52977 14.6404 9.52977 14.7559 9.72977L16.5976 12.9196C16.713 13.1196 16.5687 13.3696 16.3378 13.3696H12.6544C12.4235 13.3696 12.2792 13.1196 12.3946 12.9196L14.2363 9.72977Z" fill="#14161C"/>
<path d="M14.7559 19.0329C14.6404 19.2329 14.3518 19.2329 14.2363 19.0329L12.3946 15.8431C12.2792 15.6431 12.4235 15.3931 12.6544 15.3931H16.3378C16.5687 15.3931 16.713 15.6431 16.5976 15.8431L14.7559 19.0329Z" fill="#14161C"/>
</g>
</g>
</g>
<defs>
<clipPath id="clip0_281_7394">
<rect y="0.200195" width="28" height="28" rx="14" fill="white"/>
</clipPath>
<clipPath id="clip1_281_7394">
<rect width="28" height="28" fill="white" transform="translate(0 0.200195)"/>
</clipPath>
<clipPath id="clip2_281_7394">
<rect width="28" height="28" fill="white" transform="translate(0 0.200195)"/>
</clipPath>
</defs>
</svg>
