<svg width="21" height="20" viewBox="0 0 21 20" fill="none" xmlns="http://www.w3.org/2000/svg">
<path fill-rule="evenodd" clip-rule="evenodd" d="M19.0708 2.45349C17.7927 1.18659 16.3698 0.794661 15.0336 0.88974C13.7335 0.982248 12.5627 1.5304 11.7075 2.05765C11.0331 2.47344 10.0733 2.47344 9.3989 2.05765C8.54376 1.53041 7.37295 0.982261 6.07286 0.889755C4.73665 0.794677 3.31379 1.1866 2.03566 2.45349C0.526737 3.94914 0.0533283 5.79546 0.24343 7.66307C0.431341 9.50914 1.26445 11.3858 2.37559 13.0487C3.4897 14.716 4.91285 16.2129 6.3406 17.2999C7.73694 18.3629 9.25622 19.1239 10.5532 19.1239C11.8503 19.1239 13.3695 18.3629 14.7659 17.2999C16.1936 16.2129 17.6168 14.716 18.7309 13.0487C19.842 11.3858 20.6751 9.50914 20.863 7.66306C21.0531 5.79546 20.5797 3.94913 19.0708 2.45349ZM12.4811 3.24296C13.2373 2.77671 14.1733 2.35838 15.139 2.28967C16.0686 2.22352 17.0705 2.47563 18.0397 3.43626C19.1981 4.5845 19.5816 5.99477 19.4259 7.52487C19.268 9.07649 18.5524 10.7386 17.5197 12.2841C16.49 13.8251 15.1742 15.206 13.8754 16.1948C12.5452 17.2075 11.3503 17.7202 10.5532 17.7202C9.75617 17.7202 8.56132 17.2075 7.2311 16.1948C5.93228 15.206 4.61643 13.8251 3.58672 12.2841C2.55403 10.7386 1.8385 9.07649 1.68056 7.52487C1.52482 5.99477 1.90835 4.5845 3.06678 3.43627C4.03593 2.47564 5.03785 2.22354 5.96742 2.28968C6.93314 2.3584 7.86913 2.77672 8.62533 3.24296C9.77191 3.9499 11.3345 3.9499 12.4811 3.24296Z" fill="white"/>
</svg>
