<svg width="28" height="29" viewBox="0 0 28 29" fill="none" xmlns="http://www.w3.org/2000/svg">
<g clip-path="url(#clip0_281_7388)">
<g clip-path="url(#clip1_281_7388)">
<path d="M0 14.2002C0 6.46821 6.26801 0.200195 14 0.200195C21.732 0.200195 28 6.46821 28 14.2002C28 21.9322 21.732 28.2002 14 28.2002C6.26801 28.2002 0 21.9322 0 14.2002Z" fill="#14161C"/>
<path fill-rule="evenodd" clip-rule="evenodd" d="M20.3693 6.64746C20.5634 6.79907 20.6769 7.03168 20.6769 7.27803V10.478C20.6769 10.7244 20.5634 10.957 20.3693 11.1086C20.1751 11.2602 19.9219 11.3139 19.6829 11.2541L16.4829 10.4541C16.1268 10.3651 15.8769 10.0451 15.8769 9.67802H13.4769C13.0351 9.67802 12.6769 10.0362 12.6769 10.478V10.558C14.5027 10.9287 15.8769 12.5429 15.8769 14.478V21.678C15.8769 22.1199 15.5188 22.478 15.0769 22.478H8.67695C8.23513 22.478 7.87695 22.1199 7.87695 21.678V14.478C7.87695 12.5429 9.25116 10.9287 11.0769 10.558V10.478C11.0769 9.15254 12.1515 8.07802 13.4769 8.07802H15.8769C15.8769 7.71093 16.1268 7.39095 16.4829 7.30192L19.6829 6.50192C19.9219 6.44217 20.1751 6.49586 20.3693 6.64746ZM9.47695 19.278V20.878H14.2769V19.278H9.47695Z" fill="white"/>
</g>
</g>
<defs>
<clipPath id="clip0_281_7388">
<rect width="28" height="28" fill="white" transform="translate(0 0.200195)"/>
</clipPath>
<clipPath id="clip1_281_7388">
<rect width="28" height="28" fill="white" transform="translate(0 0.200195)"/>
</clipPath>
</defs>
</svg>
