<svg width="33" height="32" viewBox="0 0 33 32" fill="none" xmlns="http://www.w3.org/2000/svg">
<ellipse cx="16.4209" cy="16.2297" rx="15.9439" ry="15.5" fill="#F3F3F3"/>
<path d="M10.1851 16.4953C10.1851 16.4357 10.1851 16.4059 10.1865 16.3807C10.2093 15.9913 10.4878 15.6811 10.8373 15.6558C10.8599 15.6542 10.8867 15.6542 10.9403 15.6542H21.9856C22.0392 15.6542 22.066 15.6542 22.0886 15.6558C22.4382 15.6811 22.7166 15.9913 22.7394 16.3807C22.7408 16.4059 22.7408 16.4357 22.7408 16.4953C22.7408 16.8028 22.7408 16.9565 22.731 17.1285C22.5855 19.6829 20.6363 21.937 18.35 22.1949C18.196 22.2123 18.1062 22.2161 17.9265 22.2236C17.4144 22.245 16.9159 22.2581 16.463 22.2581C16.01 22.2581 15.5115 22.245 14.9994 22.2236C14.8197 22.2161 14.7299 22.2123 14.5759 22.1949C12.2896 21.937 10.3404 19.6829 10.1949 17.1285C10.1851 16.9565 10.1851 16.8028 10.1851 16.4953Z" stroke="black" stroke-width="0.933513"/>
<path d="M12.2776 21.8696L11.5801 23.4235" stroke="black" stroke-width="0.933513" stroke-linecap="round"/>
<path d="M20.6482 21.8696L21.3457 23.4235" stroke="black" stroke-width="0.933513" stroke-linecap="round"/>
<path d="M9.48755 15.6542H23.4384" stroke="black" stroke-width="0.933513" stroke-linecap="round"/>
<path d="M9.7183 16.4311C9.7183 16.6889 9.92728 16.8979 10.1851 16.8979C10.4428 16.8979 10.6518 16.6889 10.6518 16.4311H9.7183ZM13.3936 9.04972L13.8329 8.89196V8.89196L13.3936 9.04972ZM13.658 9.7861L13.8805 10.1964L13.658 9.7861ZM12.5303 11.142L12.9688 11.3019L12.5303 11.142ZM15.4704 9.73225L15.2698 10.1537L15.4704 9.73225ZM12.5188 13.1226L12.0787 13.2783C12.1229 13.4032 12.2181 13.5034 12.3405 13.554C12.4629 13.6046 12.6011 13.6007 12.7206 13.5435L12.5188 13.1226ZM16.6766 11.1289L16.8784 11.5498C17.0935 11.4467 17.1962 11.1981 17.1167 10.9732L16.6766 11.1289ZM10.6518 16.4311V9.73795H9.7183V16.4311H10.6518ZM11.8488 8.35158C12.3076 8.35158 12.7595 8.66503 12.9543 9.20748L13.8329 8.89196C13.5223 8.0273 12.7507 7.41807 11.8488 7.41807V8.35158ZM10.6518 9.73795C10.6518 8.92369 11.2338 8.35158 11.8488 8.35158V7.41807C10.6261 7.41807 9.7183 8.50531 9.7183 9.73795H10.6518ZM12.9543 9.20748L13.2187 9.94386L14.0973 9.62834L13.8329 8.89196L12.9543 9.20748ZM12.9588 12.9669C12.7775 12.4545 12.7662 11.8577 12.9688 11.3019L12.0918 10.9821C11.8124 11.7482 11.8276 12.5683 12.0787 13.2783L12.9588 12.9669ZM16.4748 10.708L12.3169 12.7017L12.7206 13.5435L16.8784 11.5498L16.4748 10.708ZM15.2698 10.1537C15.7121 10.3642 16.0552 10.7717 16.2366 11.2846L17.1167 10.9732C16.8657 10.2638 16.3704 9.64365 15.6709 9.31078L15.2698 10.1537ZM12.9688 11.3019C13.1589 10.7805 13.4968 10.4045 13.8805 10.1964L13.4355 9.37578C12.8385 9.6995 12.3547 10.2609 12.0918 10.9821L12.9688 11.3019ZM13.8805 10.1964C14.3101 9.96347 14.8071 9.93355 15.2698 10.1537L15.6709 9.31078C14.9233 8.95504 14.1119 9.00903 13.4355 9.37578L13.8805 10.1964Z" fill="black"/>
</svg>
