<svg width="33" height="32" viewBox="0 0 33 32" fill="none" xmlns="http://www.w3.org/2000/svg">
<ellipse cx="16.8772" cy="16.1703" rx="15.9439" ry="15.5" fill="#F3F3F3"/>
<path d="M22.3459 22.0573V20.9449M12.5803 22.0573V20.9449" stroke="black" stroke-width="0.92244" stroke-linecap="round"/>
<path d="M10.4878 18.3491C10.4878 17.658 10.4878 17.3124 10.594 17.0399C10.7356 16.6764 11.0072 16.3877 11.349 16.2371C11.6054 16.1242 11.9304 16.1242 12.5804 16.1242H22.346C22.9961 16.1242 23.3211 16.1242 23.5775 16.2371C23.9193 16.3877 24.1909 16.6764 24.3325 17.0399C24.4387 17.3124 24.4387 17.658 24.4387 18.3491C24.4387 19.0402 24.4387 19.3858 24.3325 19.6583C24.1909 20.0218 23.9193 20.3105 23.5775 20.4611C23.3211 20.574 22.9961 20.574 22.346 20.574H12.5804C11.9304 20.574 11.6054 20.574 11.349 20.4611C11.0072 20.3105 10.7356 20.0218 10.594 19.6583C10.4878 19.3858 10.4878 19.0402 10.4878 18.3491Z" stroke="black" stroke-width="0.92244"/>
<path d="M23.7411 16.1243C23.7411 13.3275 23.7411 11.9291 22.9239 11.0602C22.1066 10.1913 20.7913 10.1913 18.1607 10.1913H16.7657C14.1351 10.1913 12.8197 10.1913 12.0025 11.0602C11.1853 11.9291 11.1853 13.3275 11.1853 16.1243" stroke="black" stroke-width="0.92244"/>
<path d="M21.9973 16.1242V15.0118C21.9973 13.6134 21.9973 12.9142 21.5887 12.4797C21.18 12.0453 20.5224 12.0453 19.2071 12.0453H15.7194C14.4041 12.0453 13.7464 12.0453 13.3378 12.4797C12.9292 12.9142 12.9292 13.6134 12.9292 15.0118V16.1242" stroke="black" stroke-width="0.92244"/>
<path d="M17.4634 12.4162V16.1243" stroke="black" stroke-width="0.92244"/>
</svg>
