<svg width="28" height="30" viewBox="0 0 28 30" fill="none" xmlns="http://www.w3.org/2000/svg">
<g clip-path="url(#clip0_281_7551)">
<rect y="0.200195" width="28" height="29" rx="14" fill="#14161C"/>
<g clip-path="url(#clip1_281_7551)">
<g clip-path="url(#clip2_281_7551)">
<path d="M0 14.8189C0 7.08687 6.26801 0.818848 14 0.818848C21.732 0.818848 28 7.08687 28 14.8189C28 22.5508 21.732 28.8189 14 28.8189C6.26801 28.8189 0 22.5508 0 14.8189Z" fill="#14161C"/>
<path d="M8.43335 11.0494C8.56446 10.3147 9.16008 9.75172 9.90105 9.66224L11.0211 9.52699C13.1841 9.2658 15.3706 9.2658 17.5336 9.52699L18.6536 9.66224C19.3946 9.75172 19.9902 10.3147 20.1213 11.0494L20.41 12.667L21.541 14.19C22.0192 14.8339 22.2773 15.6146 22.2773 16.4166V17.8341C22.2773 18.5841 21.6693 19.1921 20.9193 19.1921H7.63543C6.88538 19.1921 6.27734 18.5841 6.27734 17.8341V16.4166C6.27734 15.6146 6.53553 14.8339 7.0137 14.19L8.14472 12.667L8.43335 11.0494Z" fill="white"/>
<path d="M8.697 17.197H7.29591C6.73337 17.197 6.27734 17.653 6.27734 18.2156V20.0411C6.27734 20.6037 6.73337 21.0597 7.29591 21.0597H8.697C9.25954 21.0597 9.71557 20.6037 9.71557 20.0411V18.2156C9.71557 17.653 9.25954 17.197 8.697 17.197Z" fill="white"/>
<path d="M21.2595 17.1973H19.8584C19.2959 17.1973 18.8398 17.6533 18.8398 18.2159V20.0414C18.8398 20.604 19.2959 21.06 19.8584 21.06H21.2595C21.822 21.06 22.2781 20.604 22.2781 20.0414V18.2159C22.2781 17.6533 21.822 17.1973 21.2595 17.1973Z" fill="white"/>
<path d="M8.80168 17.2824C9.37603 17.2824 9.84164 16.8168 9.84164 16.2424C9.84164 15.668 9.37603 15.2024 8.80168 15.2024C8.22732 15.2024 7.76172 15.668 7.76172 16.2424C7.76172 16.8168 8.22732 17.2824 8.80168 17.2824Z" fill="#14161C"/>
<path d="M19.7529 17.2824C20.3272 17.2824 20.7928 16.8168 20.7928 16.2424C20.7928 15.668 20.3272 15.2024 19.7529 15.2024C19.1785 15.2024 18.7129 15.668 18.7129 16.2424C18.7129 16.8168 19.1785 17.2824 19.7529 17.2824Z" fill="#14161C"/>
<path d="M15.5434 15.627H13.0178C12.6779 15.627 12.4023 15.9026 12.4023 16.2425C12.4023 16.5824 12.6779 16.858 13.0178 16.858H15.5434C15.8834 16.858 16.1589 16.5824 16.1589 16.2425C16.1589 15.9026 15.8834 15.627 15.5434 15.627Z" fill="#14161C"/>
<path d="M9.22664 11.4939C9.31491 10.8997 9.78315 10.434 10.3779 10.349L10.4348 10.3409C12.983 9.97682 15.5701 9.97682 18.1184 10.3409L18.1753 10.349C18.77 10.434 19.2383 10.8997 19.3265 11.4939L19.5294 12.8595C19.5615 13.0758 19.3838 13.2657 19.1658 13.2478L16.492 13.029C15.0175 12.9083 13.5357 12.9083 12.0612 13.029L9.38732 13.2478C9.16938 13.2657 8.99166 13.0758 9.02379 12.8595L9.22664 11.4939Z" fill="#14161C"/>
</g>
</g>
</g>
<defs>
<clipPath id="clip0_281_7551">
<rect y="0.200195" width="28" height="29" rx="14" fill="white"/>
</clipPath>
<clipPath id="clip1_281_7551">
<rect width="28" height="29" fill="white" transform="translate(0 0.200195)"/>
</clipPath>
<clipPath id="clip2_281_7551">
<rect width="28" height="29" fill="white" transform="translate(0 0.200195)"/>
</clipPath>
</defs>
</svg>
