<svg width="28" height="29" viewBox="0 0 28 29" fill="none" xmlns="http://www.w3.org/2000/svg">
<g clip-path="url(#clip0_281_7403)">
<rect y="0.200195" width="28" height="28" rx="14" fill="#14161C"/>
<g clip-path="url(#clip1_281_7403)">
<g clip-path="url(#clip2_281_7403)">
<path d="M0 14.2002C0 6.46821 6.26801 0.200195 14 0.200195C21.732 0.200195 28 6.46821 28 14.2002C28 21.9322 21.732 28.2002 14 28.2002C6.26801 28.2002 0 21.9322 0 14.2002Z" fill="#14161C"/>
<path fill-rule="evenodd" clip-rule="evenodd" d="M14.9711 15.1449V18.0608C15.5601 16.8666 16.3991 16.1009 17.1972 15.6611C17.1673 15.5109 17.1517 15.3556 17.1517 15.1967C17.1517 15.1673 17.1522 15.138 17.1533 15.1089C16.8317 15.0307 16.5297 14.9025 16.2559 14.7329C15.8586 14.9331 15.4265 15.0742 14.9711 15.1449ZM19.5206 17.5656C18.8279 17.5656 18.2047 17.2683 17.7715 16.7944C16.7672 17.3646 15.5196 18.7343 15.4576 21.5942V22.2244C15.4576 22.3645 15.344 22.4781 15.2039 22.4781H13.4284C13.2883 22.4781 13.1747 22.3645 13.1747 22.2244V21.6145C13.1166 18.7303 11.827 17.354 10.7914 16.7864C10.358 17.265 9.73159 17.5656 9.035 17.5656C7.72664 17.5656 6.66602 16.505 6.66602 15.1967C6.66602 14.3566 7.10327 13.6187 7.76259 13.198C7.63112 12.8538 7.55911 12.4802 7.55911 12.0898C7.55911 10.4829 8.77897 9.16099 10.3432 8.9995C11.0365 7.51032 12.5463 6.47803 14.2973 6.47803C16.05 6.47803 17.5611 7.51241 18.2535 9.00401C19.7979 9.18414 20.9966 10.497 20.9966 12.0898C20.9966 12.4802 20.9245 12.8538 20.7931 13.1981C21.4524 13.6187 21.8896 14.3566 21.8896 15.1967C21.8896 16.505 20.829 17.5656 19.5206 17.5656ZM13.7025 18.1759V15.1564C13.2097 15.0892 12.7432 14.9396 12.3172 14.722C12.0388 14.897 11.7308 15.029 11.4024 15.1089C11.4034 15.138 11.404 15.1673 11.404 15.1967C11.404 15.3522 11.389 15.5043 11.3604 15.6514C12.2031 16.1029 13.0955 16.9055 13.7025 18.1759Z" fill="white"/>
</g>
</g>
</g>
<defs>
<clipPath id="clip0_281_7403">
<rect y="0.200195" width="28" height="28" rx="14" fill="white"/>
</clipPath>
<clipPath id="clip1_281_7403">
<rect width="28" height="28" fill="white" transform="translate(0 0.200195)"/>
</clipPath>
<clipPath id="clip2_281_7403">
<rect width="28" height="28" fill="white" transform="translate(0 0.200195)"/>
</clipPath>
</defs>
</svg>
