<svg width="28" height="30" viewBox="0 0 28 30" fill="none" xmlns="http://www.w3.org/2000/svg">
<g clip-path="url(#clip0_281_7468)">
<rect y="0.200195" width="28" height="29" rx="14" fill="#14161C"/>
<g clip-path="url(#clip1_281_7468)">
<g clip-path="url(#clip2_281_7468)">
<path d="M0 14.5537C0 6.82173 6.26801 0.553711 14 0.553711C21.732 0.553711 28 6.82173 28 14.5537C28 22.2857 21.732 28.5537 14 28.5537C6.26801 28.5537 0 22.2857 0 14.5537Z" fill="#14161C"/>
<path d="M20.5777 8.95634C20.5777 8.66642 20.3426 8.4314 20.0527 8.4314H8.50199C8.21208 8.4314 7.97705 8.66642 7.97705 8.95634C7.97705 11.4755 9.46139 13.6514 11.6012 14.6589L8.05922 20.2251C7.90356 20.4697 7.97567 20.7942 8.22029 20.9499C8.4649 21.1055 8.78938 21.0334 8.94504 20.7888L10.4608 18.4068H18.0941L19.61 20.7889C19.7656 21.0334 20.0901 21.1055 20.3346 20.9498C20.5791 20.7942 20.6512 20.4698 20.4956 20.2253L16.9535 14.6592C19.0933 13.6514 20.5777 11.4755 20.5777 8.95634ZM17.4257 17.3569H11.129L12.6092 15.0312C13.1409 15.1774 13.6999 15.2569 14.2776 15.2569C14.8553 15.2569 15.4143 15.1774 15.946 15.0312L17.4257 17.3569Z" fill="white"/>
</g>
</g>
</g>
<defs>
<clipPath id="clip0_281_7468">
<rect y="0.200195" width="28" height="29" rx="14" fill="white"/>
</clipPath>
<clipPath id="clip1_281_7468">
<rect width="28" height="29" fill="white" transform="translate(0 0.200195)"/>
</clipPath>
<clipPath id="clip2_281_7468">
<rect width="28" height="29" fill="white" transform="translate(0 0.200195)"/>
</clipPath>
</defs>
</svg>
