<svg width="28" height="30" viewBox="0 0 28 30" fill="none" xmlns="http://www.w3.org/2000/svg">
<g clip-path="url(#clip0_281_7454)">
<g clip-path="url(#clip1_281_7454)">
<path d="M0 14.4653C0 6.73335 6.26801 0.465332 14 0.465332C21.732 0.465332 28 6.73335 28 14.4653C28 22.1973 21.732 28.4653 14 28.4653C6.26801 28.4653 0 22.1973 0 14.4653Z" fill="#14161C"/>
<path d="M18.9935 10.7438V18.7427C18.9935 19.0078 18.8882 19.2622 18.7007 19.4497C18.5132 19.6372 18.2588 19.7425 17.9937 19.7425H16.9938C16.7286 19.7425 16.4743 19.6372 16.2868 19.4497C16.0993 19.2622 15.9939 19.0078 15.9939 18.7427V15.2431H12.9943V18.7427C12.9943 19.0078 12.889 19.2622 12.7015 19.4497C12.514 19.6372 12.2597 19.7425 11.9945 19.7425H10.9946C10.7294 19.7425 10.4751 19.6372 10.2876 19.4497C10.1001 19.2622 9.99476 19.0078 9.99476 18.7427V10.7438C9.99476 10.4786 10.1001 10.2243 10.2876 10.0367C10.4751 9.84924 10.7294 9.7439 10.9946 9.7439H11.9945C12.2597 9.7439 12.514 9.84924 12.7015 10.0367C12.889 10.2243 12.9943 10.4786 12.9943 10.7438V14.2433H15.9939V10.7438C15.9939 10.4786 16.0993 10.2243 16.2868 10.0367C16.4743 9.84924 16.7286 9.7439 16.9938 9.7439H17.9937C18.2588 9.7439 18.5132 9.84924 18.7007 10.0367C18.8882 10.2243 18.9935 10.4786 18.9935 10.7438ZM8.74493 11.2437H8.49496C8.22978 11.2437 7.97547 11.349 7.78795 11.5365C7.60044 11.7241 7.4951 11.9784 7.4951 12.2436V14.2433H7.01204C6.88285 14.2414 6.75773 14.2885 6.66185 14.3751C6.56597 14.4617 6.50644 14.5814 6.49524 14.7101C6.4907 14.7785 6.50027 14.8471 6.52335 14.9116C6.54643 14.9761 6.58254 15.0352 6.62942 15.0852C6.6763 15.1352 6.73296 15.175 6.79588 15.2022C6.8588 15.2294 6.92664 15.2433 6.99517 15.2431H7.4951V17.2429C7.4951 17.5081 7.60044 17.7624 7.78795 17.9499C7.97547 18.1374 8.22978 18.2427 8.49496 18.2427H8.74493C8.81123 18.2427 8.8748 18.2164 8.92168 18.1695C8.96856 18.1226 8.9949 18.0591 8.9949 17.9928V11.4937C8.9949 11.4274 8.96856 11.3638 8.92168 11.3169C8.8748 11.27 8.81123 11.2437 8.74493 11.2437ZM22.493 14.7101C22.4819 14.5816 22.4225 14.4621 22.3269 14.3755C22.2313 14.2889 22.1065 14.2417 21.9775 14.2433H21.4932V12.2436C21.4932 11.9784 21.3878 11.7241 21.2003 11.5365C21.0128 11.349 20.7585 11.2437 20.4933 11.2437H20.2434C20.1771 11.2437 20.1135 11.27 20.0666 11.3169C20.0197 11.3638 19.9934 11.4274 19.9934 11.4937V17.9928C19.9934 18.0591 20.0197 18.1226 20.0666 18.1695C20.1135 18.2164 20.1771 18.2427 20.2434 18.2427H20.4933C20.7585 18.2427 21.0128 18.1374 21.2003 17.9499C21.3878 17.7624 21.4932 17.5081 21.4932 17.2429V15.2431H21.9931C22.0616 15.2433 22.1295 15.2294 22.1924 15.2022C22.2553 15.175 22.312 15.1352 22.3589 15.0852C22.4057 15.0352 22.4418 14.9761 22.4649 14.9116C22.488 14.8471 22.4976 14.7785 22.493 14.7101Z" fill="white"/>
</g>
</g>
<defs>
<clipPath id="clip0_281_7454">
<rect width="28" height="29" fill="white" transform="translate(0 0.200195)"/>
</clipPath>
<clipPath id="clip1_281_7454">
<rect width="28" height="29" fill="white" transform="translate(0 0.200195)"/>
</clipPath>
</defs>
</svg>
