<svg width="24" height="24" viewBox="0 0 24 24" fill="none" xmlns="http://www.w3.org/2000/svg">
<path fill-rule="evenodd" clip-rule="evenodd" d="M20.0705 4.45349C18.7924 3.18659 17.3695 2.79466 16.0333 2.88974C14.7332 2.98225 13.5624 3.5304 12.7073 4.05765C12.0329 4.47344 11.073 4.47344 10.3987 4.05765C9.54352 3.53041 8.3727 2.98226 7.07262 2.88975C5.7364 2.79468 4.31354 3.1866 3.03541 4.45349C1.52649 5.94914 1.05308 7.79546 1.24319 9.66307C1.4311 11.5091 2.26421 13.3858 3.37535 15.0487C4.48945 16.716 5.91261 18.2129 7.34035 19.2999C8.7367 20.3629 10.256 21.1239 11.553 21.1239C12.85 21.1239 14.3693 20.3629 15.7656 19.2999C17.1934 18.2129 18.6165 16.716 19.7306 15.0487C20.8418 13.3858 21.6749 11.5091 21.8628 9.66306C22.0529 7.79546 21.5795 5.94914 20.0705 4.45349ZM13.4808 5.24296C14.237 4.77671 15.173 4.35838 16.1388 4.28967C17.0683 4.22352 18.0703 4.47563 19.0394 5.43626C20.1979 6.5845 20.5814 7.99477 20.4256 9.52487C20.2677 11.0765 19.5522 12.7386 18.5195 14.2841C17.4898 15.8251 16.1739 17.206 14.8751 18.1948C13.5449 19.2075 12.3501 19.7202 11.553 19.7202C10.7559 19.7202 9.56107 19.2075 8.23085 18.1948C6.93203 17.206 5.61619 15.8251 4.58647 14.2841C3.55379 12.7386 2.83826 11.0765 2.68032 9.52487C2.52457 7.99477 2.90811 6.5845 4.06654 5.43627C5.03568 4.47564 6.0376 4.22354 6.96718 4.28968C7.93289 4.3584 8.86888 4.77672 9.62509 5.24296C10.7717 5.9499 12.3343 5.9499 13.4808 5.24296Z" fill="white"/>
</svg>
