<svg width="28" height="30" viewBox="0 0 28 30" fill="none" xmlns="http://www.w3.org/2000/svg">
<g clip-path="url(#clip0_281_7483)">
<rect y="0.200195" width="28" height="29" rx="14" fill="#14161C"/>
<g clip-path="url(#clip1_281_7483)">
<g clip-path="url(#clip2_281_7483)">
<path d="M0 14.6421C0 6.91011 6.26801 0.64209 14 0.64209C21.732 0.64209 28 6.91011 28 14.6421C28 22.3741 21.732 28.6421 14 28.6421C6.26801 28.6421 0 22.3741 0 14.6421Z" fill="#14161C"/>
<path d="M19.8566 16.1788L19.8467 16.0448C19.6766 13.9529 18.66 12.6607 17.7631 11.5204C16.9892 10.536 16.3204 9.68564 16.3204 8.47975C16.3204 8.27248 16.2061 8.08217 16.0229 7.98535C15.8408 7.88854 15.6187 7.89952 15.447 8.01596C14.0853 8.93583 12.9489 10.4901 12.5513 11.9748C12.3112 12.8706 12.1439 13.7686 12.0738 14.5069C12.0197 14.4724 11.9688 14.4314 11.9218 14.3833C11.5412 13.995 11.4722 13.2337 11.4778 12.9734C11.4816 12.7853 11.3908 12.607 11.236 12.5004C11.0818 12.3927 10.8833 12.3697 10.7094 12.4402C10.6307 12.4714 8.77727 13.2502 8.68482 16.293C8.67826 16.3953 8.67773 16.4976 8.67773 16.5998C8.67773 19.5333 11.1902 21.9199 14.2778 21.9199C17.3655 21.9199 19.8779 19.5333 19.8779 16.5999C19.8779 16.4528 19.8675 16.3155 19.8566 16.1788Z" fill="white"/>
</g>
</g>
</g>
<defs>
<clipPath id="clip0_281_7483">
<rect y="0.200195" width="28" height="29" rx="14" fill="white"/>
</clipPath>
<clipPath id="clip1_281_7483">
<rect width="28" height="29" fill="white" transform="translate(0 0.200195)"/>
</clipPath>
<clipPath id="clip2_281_7483">
<rect width="28" height="29" fill="white" transform="translate(0 0.200195)"/>
</clipPath>
</defs>
</svg>
