<svg width="28" height="30" viewBox="0 0 28 30" fill="none" xmlns="http://www.w3.org/2000/svg">
<g clip-path="url(#clip0_281_7410)">
<rect y="0.200195" width="28" height="29" rx="14" fill="#14161C"/>
<g clip-path="url(#clip1_281_7410)">
<g clip-path="url(#clip2_281_7410)">
<path d="M0 14.377C0 6.64497 6.26801 0.376953 14 0.376953C21.732 0.376953 28 6.64497 28 14.377C28 22.1089 21.732 28.377 14 28.377C6.26801 28.377 0 22.1089 0 14.377Z" fill="#14161C"/>
<path d="M7.34056 13.7866C7.49292 13.9343 7.71458 13.9331 7.86007 13.7786C9.55653 11.9812 11.78 11.0317 14.2767 11.0317C16.7877 11.0317 19.0236 11.9869 20.7077 13.7866C20.8474 13.9263 21.0611 13.9194 21.2121 13.7717L22.1725 12.8098C22.3098 12.6739 22.3067 12.497 22.1955 12.3667C20.5485 10.3309 17.4719 8.87036 14.2767 8.87036C11.0869 8.87036 7.9987 10.3309 6.35714 12.3667C6.30155 12.4318 6.27479 12.5084 6.27754 12.5857C6.28097 12.6634 6.31459 12.7418 6.38048 12.8098L7.34056 13.7866Z" fill="white"/>
<path d="M10.2083 16.6454C10.375 16.8043 10.5878 16.785 10.7408 16.6167C11.5808 15.7028 12.9204 15.0581 14.2758 15.0637C15.6463 15.0581 16.99 15.7234 17.841 16.6398C17.9803 16.7999 18.1765 16.7907 18.344 16.6398L19.4221 15.5817C19.547 15.4583 19.5631 15.2876 19.4465 15.1504C18.3804 13.8599 16.4245 12.9195 14.2758 12.9195C12.1271 12.9195 10.1726 13.8599 9.1055 15.1504C8.98883 15.2876 8.99913 15.447 9.12952 15.5817L10.2083 16.6454Z" fill="white"/>
<path d="M14.863 20.0962C14.5878 20.3631 14.4436 20.4392 14.2783 20.4392C14.1135 20.4392 13.9694 20.3575 13.6929 20.0962L12.0122 18.4767C11.8907 18.3614 11.855 18.2144 11.9346 18.0911C12.4102 17.4532 13.2852 16.9378 14.2783 16.9378C15.2459 16.9378 16.1106 17.4314 16.5855 18.0387C16.6973 18.1783 16.6685 18.3577 16.5484 18.4767L14.863 20.0962Z" fill="white"/>
</g>
</g>
</g>
<defs>
<clipPath id="clip0_281_7410">
<rect y="0.200195" width="28" height="29" rx="14" fill="white"/>
</clipPath>
<clipPath id="clip1_281_7410">
<rect width="28" height="29" fill="white" transform="translate(0 0.200195)"/>
</clipPath>
<clipPath id="clip2_281_7410">
<rect width="28" height="29" fill="white" transform="translate(0 0.200195)"/>
</clipPath>
</defs>
</svg>
