<svg width="28" height="30" viewBox="0 0 28 30" fill="none" xmlns="http://www.w3.org/2000/svg">
<g clip-path="url(#clip0_281_7461)">
<g clip-path="url(#clip1_281_7461)">
<path d="M0 14.5537C0 6.82173 6.26801 0.553711 14 0.553711C21.732 0.553711 28 6.82173 28 14.5537C28 22.2857 21.732 28.5537 14 28.5537C6.26801 28.5537 0 22.2857 0 14.5537Z" fill="#14161C"/>
<path d="M14.125 6.83154C14.0098 6.83154 13.8993 6.87903 13.8178 6.96356C13.7363 7.04808 13.6905 7.16273 13.6905 7.28227V10.6392C13.6905 10.7588 13.6447 10.8734 13.5632 10.958C13.4818 11.0425 13.3713 11.09 13.256 11.09H13.0614C13.0043 11.0902 12.9477 11.0787 12.8949 11.0561C12.842 11.0336 12.7941 11.0004 12.7537 10.9585C12.7133 10.9166 12.6813 10.8668 12.6595 10.812C12.6377 10.7572 12.6267 10.6985 12.6269 10.6392V7.28227C12.6269 7.16273 12.5811 7.04808 12.4996 6.96356C12.4182 6.87903 12.3076 6.83154 12.1924 6.83154H12.1051C12.0481 6.83154 11.9916 6.84321 11.9389 6.86586C11.8862 6.88851 11.8383 6.9217 11.7979 6.96356C11.7576 7.00541 11.7255 7.0551 11.7037 7.10978C11.6819 7.16447 11.6707 7.22308 11.6707 7.28227V10.6392C11.6707 10.7588 11.6249 10.8734 11.5434 10.958C11.4619 11.0425 11.3514 11.09 11.2361 11.09H11.0399C10.9246 11.09 10.8141 11.0425 10.7326 10.958C10.6511 10.8734 10.6053 10.7588 10.6053 10.6392V7.28227C10.6053 7.22308 10.5941 7.16447 10.5723 7.10978C10.5504 7.0551 10.5184 7.00541 10.4781 6.96356C10.4377 6.9217 10.3898 6.88851 10.3371 6.86586C10.2844 6.84321 10.2279 6.83154 10.1709 6.83154C10.1138 6.83154 10.0573 6.84321 10.0046 6.86586C9.95185 6.88851 9.90393 6.9217 9.86358 6.96356C9.82324 7.00541 9.79122 7.0551 9.76938 7.10978C9.74755 7.16447 9.73633 7.22308 9.73633 7.28227V11.3736C9.73624 12.1163 10.0183 12.8291 10.5215 13.3575C10.9574 13.8177 11.2432 14.4081 11.3385 15.0456C11.415 15.5638 11.4308 16.0897 11.3855 16.6118L11.0315 21.5907C11.0212 21.7494 11.0424 21.9085 11.0939 22.0583C11.1453 22.208 11.2259 22.3452 11.3306 22.4613C11.4353 22.5775 11.5618 22.6701 11.7024 22.7333C11.843 22.7966 11.9947 22.8293 12.1479 22.8293C12.3012 22.8293 12.4528 22.7966 12.5934 22.7333C12.734 22.6701 12.8606 22.5775 12.9653 22.4613C13.0699 22.3452 13.1505 22.208 13.202 22.0583C13.2534 21.9085 13.2747 21.7494 13.2644 21.5907L12.9104 16.6118C12.8648 16.0897 12.8812 15.5637 12.9591 15.0456C13.0536 14.4078 13.3395 13.8172 13.7761 13.3575C14.2782 12.8285 14.5595 12.116 14.5596 11.3736V7.28227C14.5596 7.16273 14.5138 7.04808 14.4323 6.96356C14.3508 6.87903 14.2403 6.83154 14.125 6.83154Z" fill="white"/>
<path d="M17.7563 6.83154H17.6725C17.5213 6.83149 17.3718 6.86488 17.234 6.92947C17.0963 6.99406 16.9734 7.08837 16.8735 7.20611C16.7737 7.32386 16.6992 7.46233 16.655 7.6123C16.6108 7.76227 16.5979 7.92029 16.6172 8.07583L17.0098 11.2588C17.0223 11.3589 17.0155 11.4606 16.9899 11.558C16.9642 11.6553 16.9202 11.7465 16.8605 11.8261L16.0804 12.8581C15.6885 13.3778 15.4753 14.0186 15.4747 14.6784V15.1152C15.4675 16.9347 15.7901 18.7394 16.4259 20.4352C16.9057 21.6969 17.5449 22.8315 18.2881 22.8315C18.3605 22.8302 18.4318 22.8139 18.498 22.7835C18.5641 22.7531 18.6237 22.7093 18.6733 22.6547C18.7228 22.6 18.7614 22.5356 18.7866 22.4653C18.8117 22.3949 18.8231 22.32 18.8199 22.2451V7.93487C18.8199 7.78998 18.7925 7.64651 18.739 7.51265C18.6856 7.37878 18.6072 7.25716 18.5084 7.1547C18.4096 7.05225 18.2924 6.97097 18.1633 6.91552C18.0343 6.86008 17.896 6.83154 17.7563 6.83154Z" fill="white"/>
</g>
</g>
<defs>
<clipPath id="clip0_281_7461">
<rect width="28" height="29" fill="white" transform="translate(0 0.200195)"/>
</clipPath>
<clipPath id="clip1_281_7461">
<rect width="28" height="29" fill="white" transform="translate(0 0.200195)"/>
</clipPath>
</defs>
</svg>
