<svg width="23" height="23" viewBox="0 0 23 23" fill="none" xmlns="http://www.w3.org/2000/svg">
<path d="M11.5 23C5.175 23 0 17.825 0 11.5C0 5.175 5.175 0 11.5 0C17.825 0 23 5.175 23 11.5C23 17.825 17.825 23 11.5 23ZM9.10417 16.2917C9.67917 19.2625 10.7333 21.0833 11.5 21.0833C12.2667 21.0833 13.3208 19.2625 13.8958 16.2917H9.10417ZM15.9083 16.2917C15.6208 17.9208 15.1417 19.4542 14.5667 20.6042C16.7708 19.8375 18.6875 18.3042 19.8375 16.2917H15.9083ZM3.1625 16.2917C4.3125 18.3042 6.22917 19.8375 8.43333 20.6042C7.85833 19.4542 7.37917 17.9208 7.09167 16.2917H3.1625ZM16.1958 14.375H20.7C20.8917 13.5125 21.0833 12.4583 21.0833 11.5C21.0833 10.5417 20.8917 9.4875 20.6042 8.625H16.1C16.2917 9.58333 16.2917 10.5417 16.2917 11.5C16.2917 12.4583 16.2917 13.4167 16.1958 14.375ZM8.81667 14.375H14.2792C14.375 13.5125 14.4708 12.5542 14.4708 11.5C14.4708 10.4458 14.375 9.4875 14.2792 8.625H8.81667C8.72083 9.4875 8.625 10.4458 8.625 11.5C8.625 12.5542 8.72083 13.5125 8.81667 14.375ZM2.39583 14.375H6.9C6.80417 13.4167 6.80417 12.4583 6.80417 11.5C6.80417 10.5417 6.80417 9.58333 6.9 8.625H2.39583C2.10833 9.4875 1.91667 10.5417 1.91667 11.5C1.91667 12.4583 2.10833 13.5125 2.39583 14.375ZM15.9083 6.70833H19.8375C18.6875 4.69583 16.7708 3.1625 14.5667 2.39583C15.1417 3.54583 15.6208 5.07917 15.9083 6.70833ZM9.10417 6.70833H13.9917C13.4167 3.7375 12.3625 1.91667 11.5958 1.91667C10.8292 1.91667 9.67917 3.7375 9.10417 6.70833ZM3.1625 6.70833H7.09167C7.37917 5.07917 7.85833 3.54583 8.43333 2.39583C6.22917 3.1625 4.40833 4.69583 3.1625 6.70833Z" fill="#24242C"/>
</svg>
