<svg width="28" height="30" viewBox="0 0 28 30" fill="none" xmlns="http://www.w3.org/2000/svg">
<g clip-path="url(#clip0_281_7427)">
<rect y="0.200195" width="28" height="29" rx="14" fill="#14161C"/>
<g clip-path="url(#clip1_281_7427)">
<g clip-path="url(#clip2_281_7427)">
<path d="M0 14.377C0 6.64497 6.26801 0.376953 14 0.376953C21.732 0.376953 28 6.64497 28 14.377C28 22.1089 21.732 28.377 14 28.377C6.26801 28.377 0 22.1089 0 14.377Z" fill="#14161C"/>
<path d="M19.457 7.99854H9.14453C8.3161 7.99854 7.64453 8.67011 7.64453 9.49854V19.811C7.64453 20.6395 8.3161 21.311 9.14453 21.311H19.457C20.2855 21.311 20.957 20.6395 20.957 19.811V9.49854C20.957 8.67011 20.2855 7.99854 19.457 7.99854Z" fill="white"/>
<path d="M7.5957 10.5381H20.958" stroke="#14161C" stroke-linecap="round"/>
<path d="M14.3011 20.0149C16.4543 20.0149 18.1999 18.2693 18.1999 16.1161C18.1999 13.9629 16.4543 12.2173 14.3011 12.2173C12.1479 12.2173 10.4023 13.9629 10.4023 16.1161C10.4023 18.2693 12.1479 20.0149 14.3011 20.0149Z" fill="#14161C" stroke="#14161C"/>
<path d="M9.27031 13.1173C9.65691 13.1173 9.97031 12.8039 9.97031 12.4173C9.97031 12.0307 9.65691 11.7173 9.27031 11.7173C8.88371 11.7173 8.57031 12.0307 8.57031 12.4173C8.57031 12.8039 8.88371 13.1173 9.27031 13.1173Z" fill="#14161C"/>
</g>
</g>
</g>
<defs>
<clipPath id="clip0_281_7427">
<rect y="0.200195" width="28" height="29" rx="14" fill="white"/>
</clipPath>
<clipPath id="clip1_281_7427">
<rect width="28" height="29" fill="white" transform="translate(0 0.200195)"/>
</clipPath>
<clipPath id="clip2_281_7427">
<rect width="28" height="29" fill="white" transform="translate(0 0.200195)"/>
</clipPath>
</defs>
</svg>
