<svg width="14" height="18" viewBox="0 0 14 18" fill="none" xmlns="http://www.w3.org/2000/svg">
<path d="M7.3586 17.6367C7.2535 17.7103 7.1283 17.7498 7 17.7498C6.87169 17.7498 6.74649 17.7103 6.64141 17.6367H7.3586ZM7.3586 17.6367C7.625 17.4508 13.875 13.0078 13.875 7.125L7.3586 17.6367ZM6.92753 17.2267L6.92826 17.2272C6.9493 17.2419 6.97435 17.2498 7 17.2498C7.02562 17.2498 7.0507 17.2419 7.07179 17.2271L7.07247 17.2267C7.1878 17.1462 8.77908 16.0168 10.3364 14.1926C11.9007 12.3602 13.3748 9.89232 13.375 7.12558C13.3731 5.43526 12.7007 3.81472 11.5056 2.61948C11.5055 2.61947 11.5055 2.61947 11.5055 2.61946M6.92753 17.2267L7 0.25C8.8227 0.25207 10.5702 0.97706 11.8591 2.26592L11.5055 2.61946M6.92753 17.2267C6.8122 17.1462 5.22093 16.0168 3.66358 14.1926C2.09928 12.3601 0.625099 9.89215 0.625 7.12528M6.92753 17.2267L0.625 7.12528M11.5055 2.61946C10.3104 1.42437 8.69008 0.75207 7 0.75M11.5055 2.61946L7 0.75M7 0.75C5.30989 0.75207 3.68958 1.42438 2.49447 2.61947L7 0.75ZM9.3097 6.16829L9.77165 5.97696C9.54459 5.42875 9.15999 4.96022 8.6667 4.63061C8.6667 4.6306 8.6667 4.6306 8.66669 4.6306L9.3097 6.16829ZM9.3097 6.16829L9.77165 5.97697C9.99868 6.52514 10.0581 7.12831 9.9424 7.71021L9.94238 7.71031C9.82659 8.29222 9.54089 8.82675 9.12137 9.24631L9.12132 9.24636C8.70172 9.66587 8.16726 9.95159 7.58527 10.0674L7.58519 10.0674C7.00334 10.1831 6.40014 10.1237 5.85197 9.89665L6.04329 9.4347L9.3097 6.16829ZM0.625 7.12528C0.626996 5.43507 1.29931 3.81465 2.49447 2.61947L0.625 7.12528Z" stroke="#808080"/>
</svg>
