<svg width="28" height="30" viewBox="0 0 28 30" fill="none" xmlns="http://www.w3.org/2000/svg">
<g clip-path="url(#clip0_281_7531)">
<rect y="0.200195" width="28" height="29" rx="14" fill="#14161C"/>
<g clip-path="url(#clip1_281_7531)">
<g clip-path="url(#clip2_281_7531)">
<path d="M0 14.8189C0 7.08687 6.26801 0.818848 14 0.818848C21.732 0.818848 28 7.08687 28 14.8189C28 22.5508 21.732 28.8189 14 28.8189C6.26801 28.8189 0 22.5508 0 14.8189Z" fill="#14161C"/>
<path d="M10.5191 23.0967H18.039C19.2585 23.0967 19.8979 22.4427 19.8979 21.1262V15.4385C19.8979 14.1264 19.2585 13.479 18.039 13.479H10.5191C9.2981 13.479 8.66016 14.1264 8.66016 15.4385V21.1262C8.66016 22.4427 9.2981 23.0967 10.5191 23.0967ZM10.1291 14.1537H11.6329V11.4452C11.6329 9.56604 12.8391 8.53477 14.2757 8.53477C15.7095 8.53477 16.9332 9.56604 16.9332 11.4452V14.1537H18.4304V11.5944C18.4304 8.6313 16.4693 7.09668 14.2757 7.09668C12.0887 7.09668 10.1291 8.6313 10.1291 11.5944V14.1537Z" fill="white"/>
</g>
</g>
</g>
<defs>
<clipPath id="clip0_281_7531">
<rect y="0.200195" width="28" height="29" rx="14" fill="white"/>
</clipPath>
<clipPath id="clip1_281_7531">
<rect width="28" height="29" fill="white" transform="translate(0 0.200195)"/>
</clipPath>
<clipPath id="clip2_281_7531">
<rect width="28" height="29" fill="white" transform="translate(0 0.200195)"/>
</clipPath>
</defs>
</svg>
