<svg width="17" height="20" viewBox="0 0 17 20" fill="none" xmlns="http://www.w3.org/2000/svg">
<g clip-path="url(#clip0_24_163)">
<path d="M8.17576 18.1509H3.40009C2.10223 18.1509 1.04917 17.094 1.04917 15.8V4.29024C1.04917 2.99238 2.10611 1.93932 3.40009 1.93932H8.25348C8.54492 1.93932 8.77807 1.70617 8.77807 1.41473C8.77807 1.12329 8.54492 0.890137 8.25348 0.890137H3.40009C1.52324 0.890137 0 2.41727 0 4.29023V15.8C0 17.6769 1.52713 19.2001 3.40009 19.2001H8.17576C8.4672 19.2001 8.70035 18.967 8.70035 18.6755C8.70035 18.3841 8.46331 18.1509 8.17576 18.1509V18.1509Z" fill="#FF2650" stroke="#FF2650" stroke-width="0.5"/>
<path d="M16.8174 9.67563L13.4834 6.3416C13.2775 6.13565 12.9472 6.13565 12.7412 6.3416C12.5353 6.54756 12.5353 6.87785 12.7412 7.0838L15.1815 9.52408H4.53825C4.24681 9.52408 4.01367 9.75723 4.01367 10.0487C4.01367 10.3401 4.24682 10.5733 4.53825 10.5733H15.1815L12.7412 13.0136C12.5353 13.2195 12.5353 13.5498 12.7412 13.7557C12.8422 13.8568 12.9783 13.9112 13.1104 13.9112C13.2425 13.9112 13.3785 13.8607 13.4795 13.7557L16.8136 10.4217C17.0234 10.2119 17.0234 9.8777 16.8174 9.67563Z" fill="#FF2650" stroke="#FF2650" stroke-width="0.5"/>
</g>
<defs>
<clipPath id="clip0_24_163">
<rect width="16.9718" height="18.31" fill="white" transform="translate(0 0.890137)"/>
</clipPath>
</defs>
</svg>
