<svg width="18" height="19" viewBox="0 0 18 19" fill="none" xmlns="http://www.w3.org/2000/svg">
<path d="M17.3332 17.8332L15.6665 16.1665M8.58317 16.9999C9.6228 16.9999 10.6523 16.7951 11.6127 16.3972C12.5732 15.9994 13.446 15.4163 14.1811 14.6811C14.9162 13.946 15.4994 13.0733 15.8972 12.1128C16.2951 11.1523 16.4998 10.1228 16.4998 9.0832C16.4998 8.04357 16.2951 7.01412 15.8972 6.05362C15.4994 5.09313 14.9162 4.2204 14.1811 3.48527C13.446 2.75014 12.5732 2.167 11.6127 1.76915C10.6523 1.3713 9.6228 1.16653 8.58317 1.16653C6.48354 1.16653 4.4699 2.00061 2.98524 3.48527C1.50058 4.96994 0.666504 6.98357 0.666504 9.0832C0.666504 11.1828 1.50058 13.1965 2.98524 14.6811C4.4699 16.1658 6.48354 16.9999 8.58317 16.9999V16.9999Z" stroke="black" stroke-opacity="0.57" stroke-width="0.949905" stroke-linecap="round" stroke-linejoin="round"/>
</svg>
