<svg width="28" height="30" viewBox="0 0 28 30" fill="none" xmlns="http://www.w3.org/2000/svg">
<g clip-path="url(#clip0_281_7521)">
<g clip-path="url(#clip1_281_7521)">
<path d="M0 14.7305C0 6.99849 6.26801 0.730469 14 0.730469C21.732 0.730469 28 6.99849 28 14.7305C28 22.4625 21.732 28.7305 14 28.7305C6.26801 28.7305 0 22.4625 0 14.7305Z" fill="#14161C"/>
<path d="M20.8125 9.24121H7.74219C6.91376 9.24121 6.24219 9.91278 6.24219 10.7412V19.2754C6.24219 20.1038 6.91376 20.7754 7.74219 20.7754H20.8125C21.6409 20.7754 22.3125 20.1038 22.3125 19.2754V10.7412C22.3125 9.91278 21.6409 9.24121 20.8125 9.24121Z" fill="white"/>
<path d="M20.6492 11.8912C21.0358 11.8912 21.3492 11.5778 21.3492 11.1912C21.3492 10.8046 21.0358 10.4912 20.6492 10.4912C20.2626 10.4912 19.9492 10.8046 19.9492 11.1912C19.9492 11.5778 20.2626 11.8912 20.6492 11.8912Z" fill="#14161C"/>
<path d="M20.6492 13.8912C21.0358 13.8912 21.3492 13.5778 21.3492 13.1912C21.3492 12.8046 21.0358 12.4912 20.6492 12.4912C20.2626 12.4912 19.9492 12.8046 19.9492 13.1912C19.9492 13.5778 20.2626 13.8912 20.6492 13.8912Z" fill="#14161C"/>
<path d="M18.1562 10.4797H8.65625C8.10397 10.4797 7.65625 10.9274 7.65625 11.4797V18.5368C7.65625 19.0891 8.10397 19.5368 8.65625 19.5368H18.1562C18.7085 19.5368 19.1562 19.0891 19.1562 18.5368V11.4797C19.1562 10.9274 18.7085 10.4797 18.1562 10.4797Z" fill="#14161C"/>
<path d="M9.09375 14.0552V15.9614" stroke="white" stroke-linecap="round"/>
</g>
</g>
<defs>
<clipPath id="clip0_281_7521">
<rect width="28" height="29" fill="white" transform="translate(0 0.200195)"/>
</clipPath>
<clipPath id="clip1_281_7521">
<rect width="28" height="29" fill="white" transform="translate(0 0.200195)"/>
</clipPath>
</defs>
</svg>
