<svg width="16" height="16" viewBox="0 0 16 16" fill="none" xmlns="http://www.w3.org/2000/svg">
<path d="M6.10671 7.24666C6.04004 7.23999 5.96004 7.23999 5.88671 7.24666C4.30004 7.19333 3.04004 5.89333 3.04004 4.29333C3.04004 2.65999 4.36004 1.33333 6.00004 1.33333C7.63337 1.33333 8.96004 2.65999 8.96004 4.29333C8.95337 5.89333 7.69337 7.19333 6.10671 7.24666Z" stroke="#292D32" stroke-width="1.5" stroke-linecap="round" stroke-linejoin="round"/>
<path d="M10.9402 2.66667C12.2335 2.66667 13.2735 3.71334 13.2735 5.00001C13.2735 6.26001 12.2735 7.28667 11.0268 7.33334C10.9735 7.32667 10.9135 7.32667 10.8535 7.33334" stroke="#292D32" stroke-width="1.5" stroke-linecap="round" stroke-linejoin="round"/>
<path d="M2.77348 9.70667C1.16014 10.7867 1.16014 12.5467 2.77348 13.62C4.60681 14.8467 7.61348 14.8467 9.44681 13.62C11.0601 12.54 11.0601 10.78 9.44681 9.70667C7.62014 8.48667 4.61348 8.48667 2.77348 9.70667Z" stroke="#292D32" stroke-width="1.5" stroke-linecap="round" stroke-linejoin="round"/>
<path d="M12.2266 13.3333C12.7066 13.2333 13.1599 13.04 13.5332 12.7533C14.5732 11.9733 14.5732 10.6867 13.5332 9.90666C13.1666 9.62666 12.7199 9.43999 12.2466 9.33333" stroke="#292D32" stroke-width="1.5" stroke-linecap="round" stroke-linejoin="round"/>
</svg>
