<svg width="21" height="26" viewBox="0 0 21 26" fill="none" xmlns="http://www.w3.org/2000/svg">
<path d="M19.6556 17.2805L20.2236 16.7172L20.2213 16.7149L19.6556 17.2805ZM18.67 16.2949L19.2357 15.7292L19.2353 15.7289L18.67 16.2949ZM20 18.1118H20.8L20.8 18.1084L20 18.1118ZM1 18.1118L0.2 18.1084V18.1118H1ZM1.34437 17.2805L0.778685 16.7149L0.776381 16.7172L1.34437 17.2805ZM2.33 16.2949L1.76467 15.7289L1.76431 15.7292L2.33 16.2949ZM3.375 13.7774L4.175 13.7781V13.7774H3.375ZM4.8 6.22492L4.16 5.74492H4.16L4.8 6.22492ZM5.86875 4.79992L6.50875 5.27992L6.50875 5.27992L5.86875 4.79992ZM9.3125 3.37492V4.17492H10.1125V3.37492H9.3125ZM11.6875 3.37492H10.8875V4.17492H11.6875V3.37492ZM15.1312 4.79992L14.4912 5.27992V5.27992L15.1312 4.79992ZM16.2 6.22492L16.84 5.74492L16.2 6.22492ZM17.625 13.7774H16.825L16.825 13.7781L17.625 13.7774ZM12.8746 22.375H13.6746V21.575H12.8746V22.375ZM8.12458 22.375V21.575H7.32458V22.375H8.12458ZM20.2213 16.7149L19.2357 15.7292L18.1043 16.8606L19.0899 17.8462L20.2213 16.7149ZM20.8 18.1084C20.7978 17.587 20.5908 17.0874 20.2236 16.7172L19.0876 17.8439C19.1592 17.9161 19.1996 18.0135 19.2 18.1152L20.8 18.1084ZM20.8 18.8124V18.1118H19.2V18.8124H20.8ZM18.8125 20.7999C19.9102 20.7999 20.8 19.9101 20.8 18.8124H19.2C19.2 19.0264 19.0265 19.1999 18.8125 19.1999V20.7999ZM2.1875 20.7999H18.8125V19.1999H2.1875V20.7999ZM0.2 18.8124C0.2 19.9101 1.08983 20.7999 2.1875 20.7999V19.1999C1.97349 19.1999 1.8 19.0264 1.8 18.8124H0.2ZM0.2 18.1118V18.8124H1.8V18.1118H0.2ZM0.776381 16.7172C0.409203 17.0874 0.202202 17.587 0.200007 18.1084L1.79999 18.1152C1.80042 18.0135 1.84078 17.9161 1.91237 17.8439L0.776381 16.7172ZM1.76431 15.7292L0.77869 16.7149L1.91006 17.8462L2.89569 16.8606L1.76431 15.7292ZM2.575 13.7767C2.57436 14.5091 2.28288 15.2113 1.76467 15.7289L2.89533 16.861C3.71369 16.0436 4.17398 14.9347 4.175 13.7781L2.575 13.7767ZM2.575 10.4999V13.7774H4.175V10.4999H2.575ZM4.16 5.74492C3.13116 7.11671 2.575 8.78519 2.575 10.4999H4.175C4.175 9.13138 4.61888 7.79976 5.44 6.70492L4.16 5.74492ZM5.22875 4.31992L4.16 5.74492L5.44 6.70492L6.50875 5.27992L5.22875 4.31992ZM8.71875 2.57492C7.34562 2.57492 6.05263 3.22142 5.22875 4.31992L6.50875 5.27992C7.03046 4.58431 7.84923 4.17492 8.71875 4.17492V2.57492ZM9.3125 2.57492H8.71875V4.17492H9.3125V2.57492ZM8.5125 1.59367V3.37492H10.1125V1.59367H8.5125ZM9.90625 0.199924C9.1365 0.199924 8.5125 0.823927 8.5125 1.59367H10.1125C10.1125 1.70758 10.0202 1.79992 9.90625 1.79992V0.199924ZM11.0938 0.199924H9.90625V1.79992H11.0938V0.199924ZM12.4875 1.59367C12.4875 0.823927 11.8635 0.199924 11.0938 0.199924V1.79992C10.9798 1.79992 10.8875 1.70758 10.8875 1.59367H12.4875ZM12.4875 3.37492V1.59367H10.8875V3.37492H12.4875ZM12.2812 2.57492H11.6875V4.17492H12.2812V2.57492ZM15.7712 4.31992C14.9474 3.22142 13.6544 2.57492 12.2812 2.57492V4.17492C13.1508 4.17492 13.9695 4.58431 14.4912 5.27992L15.7712 4.31992ZM16.84 5.74492L15.7712 4.31992L14.4912 5.27992L15.56 6.70492L16.84 5.74492ZM18.425 10.4999C18.425 8.78519 17.8688 7.11671 16.84 5.74492L15.56 6.70492C16.3811 7.79976 16.825 9.13138 16.825 10.4999H18.425ZM18.425 13.7774V10.4999H16.825V13.7774H18.425ZM19.2353 15.7289C18.7171 15.2113 18.4256 14.5091 18.425 13.7767L16.825 13.7781C16.826 14.9347 17.2863 16.0436 18.1047 16.861L19.2353 15.7289ZM12.0746 22.375C12.0746 23.2448 11.3694 23.95 10.4996 23.95V25.55C12.2531 25.55 13.6746 24.1285 13.6746 22.375H12.0746ZM8.12458 23.175H12.8746V21.575H8.12458V23.175ZM10.4996 23.95C9.62973 23.95 8.92458 23.2448 8.92458 22.375H7.32458C7.32458 24.1285 8.74607 25.55 10.4996 25.55V23.95Z" fill="#333333"/>
</svg>
