<svg width="18" height="22" viewBox="0 0 18 22" fill="none" xmlns="http://www.w3.org/2000/svg">
<path fill-rule="evenodd" clip-rule="evenodd" d="M7.79329 0.940308C4.52416 0.940308 1.9948 3.72522 2.40028 6.87819L2.47669 7.47227C2.58848 8.34157 2.26179 9.20987 1.5994 9.80399C0.226799 11.0351 -0.154548 12.9946 0.660578 14.6279L0.760081 14.8273C1.51987 16.3498 3.10776 17.3165 4.84866 17.3165H12.7634C14.265 17.3165 15.6626 16.5708 16.4689 15.3395C17.607 13.6014 17.3055 11.3211 15.7523 9.91911L15.71 9.88097C14.999 9.23914 14.6489 8.3041 14.7693 7.36821L14.8315 6.88447C15.2374 3.72817 12.7054 0.940308 9.4328 0.940308H7.79329ZM3.83328 6.70408C3.53554 4.3889 5.39282 2.34398 7.79329 2.34398H9.4328C11.8367 2.34398 13.6967 4.39185 13.3985 6.71037L13.3363 7.1941C13.1583 8.57792 13.676 9.96049 14.7273 10.9095L14.7696 10.9476C15.8121 11.8887 16.0144 13.4192 15.2505 14.5859C14.7094 15.4123 13.7713 15.9128 12.7634 15.9128H4.84866C3.66102 15.9128 2.57776 15.2533 2.05944 14.2147L1.95993 14.0153C1.42263 12.9387 1.674 11.6471 2.57877 10.8356C3.58367 9.93424 4.07929 8.61695 3.90968 7.29816L3.83328 6.70408Z" fill="black"/>
<path d="M6.52572 19.0009C6.28645 18.6908 5.83385 18.628 5.51482 18.8605C5.19579 19.0931 5.13113 19.533 5.37041 19.8431L5.65924 20.2174C7.2478 22.2761 10.4249 22.2761 12.0135 20.2174L12.3023 19.8431C12.5416 19.533 12.4769 19.0931 12.1579 18.8605C11.8389 18.628 11.3863 18.6908 11.147 19.0009L10.8582 19.3752C9.84727 20.6853 7.82546 20.6853 6.81455 19.3752L6.52572 19.0009Z" fill="black"/>
</svg>
