<svg width="100" height="100" viewBox="0 0 100 100" fill="none" xmlns="http://www.w3.org/2000/svg">
<g clip-path="url(#clip0_14_4281)">
<path opacity="0.24" d="M50 100C77.6142 100 100 77.6142 100 50C100 22.3858 77.6142 0 50 0C22.3858 0 0 22.3858 0 50C0 77.6142 22.3858 100 50 100Z" fill="white"/>
<path d="M70.4 27.99V29.46H73.97L70.27 33.81V35H76.48V33.53H72.72L76.42 29.19V27.99H70.4Z" fill="black"/>
<path d="M63.52 14.887V16.798H68.161L63.351 22.453V24H71.424V22.089H66.536L71.346 16.447V14.887H63.52Z" fill="#C8C8C8"/>
<path d="M50.5 48.095C49.8338 48.095 49.2812 47.5425 49.2812 46.8762V41.465C49.2812 40.7987 49.8338 40.2462 50.5 40.2462C51.1662 40.2462 51.7188 40.7987 51.7188 41.465V46.8762C51.7188 47.5587 51.1662 48.095 50.5 48.095Z" fill="#242B42"/>
<path d="M50.5324 64.0688C46.3399 64.0688 42.1637 63.4025 38.1824 62.07C36.7037 61.5825 35.5824 60.5263 35.0949 59.1938C34.6074 57.8613 34.7699 56.3338 35.5662 55.0013L37.6299 51.5562C38.0849 50.7925 38.4912 49.3625 38.4912 48.4688V45.0562C38.4912 38.41 43.8862 33.015 50.5324 33.015C57.1787 33.015 62.5737 38.41 62.5737 45.0562V48.4688C62.5737 49.3463 62.9799 50.7925 63.4349 51.5562L65.4987 55.0013C66.2624 56.2688 66.3924 57.78 65.8887 59.1613C65.3849 60.5425 64.2799 61.5988 62.8824 62.07C58.9012 63.4188 54.7249 64.0688 50.5324 64.0688ZM50.5324 35.4687C45.2349 35.4687 40.9287 39.775 40.9287 45.0725V48.485C40.9287 49.8013 40.4087 51.7025 39.7262 52.8238L37.6624 56.285C37.2399 56.9838 37.1424 57.7313 37.3862 58.3813C37.6299 59.0313 38.1824 59.5188 38.9624 59.7787C46.4374 62.265 54.6599 62.265 62.1349 59.7787C62.8337 59.5513 63.3699 59.0313 63.6137 58.3488C63.8737 57.6663 63.7924 56.9188 63.4187 56.285L61.3549 52.84C60.6724 51.7188 60.1524 49.8175 60.1524 48.5013V45.0888C60.1362 39.775 55.8299 35.4687 50.5324 35.4687Z" fill="#242B42"/>
<path d="M50.5001 68.2125C48.7614 68.2125 47.0551 67.4975 45.8201 66.2625C44.5851 65.0275 43.8701 63.3212 43.8701 61.5825H46.3076C46.3076 62.6875 46.7626 63.76 47.5426 64.54C48.3226 65.32 49.3951 65.775 50.5001 65.775C52.8076 65.775 54.6926 63.89 54.6926 61.5825H57.1301C57.1301 65.2387 54.1564 68.2125 50.5001 68.2125Z" fill="#242B42"/>
</g>
<defs>
<clipPath id="clip0_14_4281">
<rect width="100" height="100" fill="white"/>
</clipPath>
</defs>
</svg>
