<svg width="25" height="25" viewBox="0 0 25 25" fill="none" xmlns="http://www.w3.org/2000/svg">
<g clip-path="url(#clip0_360_4650)">
<path d="M12.4998 0C15.0078 0 17.2481 1.42986 18.2339 3.60319C18.2929 3.7331 18.347 3.86506 18.3962 3.99887C18.545 4.40385 18.3373 4.85282 17.9324 5.00166C17.5274 5.1505 17.0784 4.94285 16.9296 4.53786C16.8936 4.44013 16.8541 4.34367 16.811 4.24864C16.0796 2.63619 14.3973 1.5625 12.4998 1.5625C9.96168 1.5625 7.90757 3.46386 7.81551 5.82418L7.81229 5.98958L7.81172 7.8125H18.75C21.3388 7.8125 23.4375 9.91117 23.4375 12.5V20.3125C23.4375 22.9013 21.3388 25 18.75 25H6.25C3.66117 25 1.5625 22.9013 1.5625 20.3125V12.5C1.5625 9.91143 3.66074 7.81292 6.24922 7.8125L6.24979 5.98958C6.24979 2.67287 9.0563 0 12.4998 0ZM18.75 9.375H6.25C4.57641 9.375 3.21009 10.6906 3.12882 12.344L3.125 12.5V20.3125C3.125 21.9861 4.4406 23.3524 6.09403 23.4337L6.25 23.4375H18.75C20.4236 23.4375 21.7899 22.1219 21.8712 20.4685L21.875 20.3125V12.5C21.875 10.8264 20.5594 9.46009 18.906 9.37882L18.75 9.375ZM15.2621 13.6441C15.5672 13.9492 15.5672 14.4439 15.2621 14.749L10.8427 19.1684C10.5376 19.4735 10.043 19.4735 9.73786 19.1684C9.43277 18.8633 9.43277 18.3686 9.73786 18.0635L14.1573 13.6441C14.4624 13.339 14.957 13.339 15.2621 13.6441Z" fill="black"/>
</g>
<defs>
<clipPath id="clip0_360_4650">
<rect width="25" height="25" fill="white"/>
</clipPath>
</defs>
</svg>
