<svg width="28" height="30" viewBox="0 0 28 30" fill="none" xmlns="http://www.w3.org/2000/svg">
<g clip-path="url(#clip0_281_7504)">
<rect y="0.200195" width="28" height="29" rx="14" fill="#14161C"/>
<g clip-path="url(#clip1_281_7504)">
<g clip-path="url(#clip2_281_7504)">
<path d="M0 14.7305C0 6.99849 6.26801 0.730469 14 0.730469C21.732 0.730469 28 6.99849 28 14.7305C28 22.4625 21.732 28.7305 14 28.7305C6.26801 28.7305 0 22.4625 0 14.7305Z" fill="#14161C"/>
<path fill-rule="evenodd" clip-rule="evenodd" d="M18.2236 13.9832C19.1509 14.9109 20.6545 14.9109 21.5818 13.9832C22.5092 13.0555 22.5092 11.5515 21.5818 10.6238C21.0301 10.0719 20.2745 9.84834 19.5576 9.95309C19.431 9.9716 19.3149 9.85548 19.3334 9.72877C19.438 9.01168 19.2145 8.25589 18.6629 7.70405C17.7355 6.77638 16.232 6.77638 15.3046 7.70405C14.3773 8.63172 14.3773 10.1358 15.3046 11.0635C15.346 11.1048 15.3476 11.1722 15.3063 11.2136L10.4788 16.0427C10.4372 16.0844 10.3694 16.0827 10.3277 16.041C9.40116 15.1141 7.89887 15.1141 6.97228 16.041C6.0457 16.9679 6.0457 18.4707 6.97228 19.3976C7.52322 19.9488 8.27768 20.1722 8.99365 20.0679C9.12021 20.0495 9.23616 20.1654 9.21778 20.2921C9.11391 21.008 9.33731 21.7623 9.888 22.3131C10.8146 23.24 12.3169 23.24 13.2435 22.3131C14.17 21.3862 14.17 19.8834 13.2435 18.9565C13.2056 18.9187 13.2042 18.857 13.2421 18.8192L18.078 13.9816C18.1181 13.9415 18.1834 13.9431 18.2236 13.9832Z" fill="white"/>
</g>
</g>
</g>
<defs>
<clipPath id="clip0_281_7504">
<rect y="0.200195" width="28" height="29" rx="14" fill="white"/>
</clipPath>
<clipPath id="clip1_281_7504">
<rect width="28" height="29" fill="white" transform="translate(0 0.200195)"/>
</clipPath>
<clipPath id="clip2_281_7504">
<rect width="28" height="29" fill="white" transform="translate(0 0.200195)"/>
</clipPath>
</defs>
</svg>
