<svg width="11" height="16" viewBox="0 0 11 16" fill="none" xmlns="http://www.w3.org/2000/svg">
<path d="M1.20683 0.4C1.30566 0.302993 1.42306 0.226029 1.55231 0.173515C1.68157 0.121002 1.82013 0.0939713 1.96007 0.0939713C2.10001 0.0939713 2.23857 0.121002 2.36783 0.173515C2.49708 0.226029 2.61448 0.302993 2.71331 0.4L9.87121 7.40833C9.95011 7.48543 10.0127 7.577 10.0554 7.67781C10.0981 7.77862 10.1201 7.88669 10.1201 7.99583C10.1201 8.10497 10.0981 8.21304 10.0554 8.31385C10.0127 8.41466 9.95011 8.50624 9.87121 8.58333L2.71331 15.5917C2.29626 16 1.62388 16 1.20683 15.5917C0.789785 15.1833 0.789785 14.525 1.20683 14.1167L7.45404 8L1.19832 1.875C0.789785 1.46667 0.789785 0.808333 1.20683 0.4Z" fill="#2F2D3D"/>
</svg>
