<svg width="16" height="21" viewBox="0 0 16 21" fill="none" xmlns="http://www.w3.org/2000/svg">
<path fill-rule="evenodd" clip-rule="evenodd" d="M7.76612 0.940308C5.24045 0.940308 3.19299 2.93039 3.19299 5.38527C3.19299 7.84016 5.24045 9.83024 7.76612 9.83024C10.2918 9.83024 12.3393 7.84016 12.3393 5.38527C12.3393 2.93039 10.2918 0.940308 7.76612 0.940308ZM4.63713 5.38527C4.63713 3.70561 6.03803 2.34398 7.76612 2.34398C9.49422 2.34398 10.8951 3.70561 10.8951 5.38527C10.8951 7.06493 9.49422 8.42657 7.76612 8.42657C6.03803 8.42657 4.63713 7.06493 4.63713 5.38527Z" fill="#F7F6F9"/>
<path fill-rule="evenodd" clip-rule="evenodd" d="M4.87783 11.2339C2.35215 11.2339 0.304688 13.224 0.304688 15.6789C0.304688 18.1338 2.35215 20.1238 4.87783 20.1238H10.6544C13.1801 20.1238 15.2276 18.1338 15.2276 15.6789C15.2276 13.224 13.1801 11.2339 10.6544 11.2339H4.87783ZM1.74884 15.6789C1.74884 13.9992 3.14973 12.6376 4.87783 12.6376H10.6544C12.3825 12.6376 13.7834 13.9992 13.7834 15.6789C13.7834 17.3585 12.3825 18.7202 10.6544 18.7202H4.87783C3.14973 18.7202 1.74884 17.3585 1.74884 15.6789Z" fill="#F7F6F9"/>
</svg>
