<svg width="21" height="20" viewBox="0 0 21 20" fill="none" xmlns="http://www.w3.org/2000/svg">
<g opacity="0.3">
<path d="M6.20683 2.4C6.30566 2.30299 6.42306 2.22603 6.55231 2.17352C6.68157 2.121 6.82013 2.09397 6.96007 2.09397C7.10001 2.09397 7.23857 2.121 7.36783 2.17352C7.49708 2.22603 7.61448 2.30299 7.71331 2.4L14.8712 9.40833C14.9501 9.48543 15.0127 9.577 15.0554 9.67781C15.0981 9.77862 15.1201 9.88669 15.1201 9.99583C15.1201 10.105 15.0981 10.213 15.0554 10.3139C15.0127 10.4147 14.9501 10.5062 14.8712 10.5833L7.71331 17.5917C7.29626 18 6.62388 18 6.20683 17.5917C5.78979 17.1833 5.78979 16.525 6.20683 16.1167L12.454 10L6.19832 3.875C5.78979 3.46667 5.78979 2.80833 6.20683 2.4Z" fill="#2F2D3D"/>
</g>
</svg>
