<svg width="28" height="30" viewBox="0 0 28 30" fill="none" xmlns="http://www.w3.org/2000/svg">
<g clip-path="url(#clip0_281_7476)">
<g clip-path="url(#clip1_281_7476)">
<path d="M0 14.5537C0 6.82173 6.26801 0.553711 14 0.553711C21.732 0.553711 28 6.82173 28 14.5537C28 22.2857 21.732 28.5537 14 28.5537C6.26801 28.5537 0 22.2857 0 14.5537Z" fill="#14161C"/>
<path d="M8.69017 14.26C8.64832 14.2632 8.6063 14.2632 8.56445 14.26V21.6886C8.56445 21.9917 8.68486 22.2824 8.89919 22.4967C9.11352 22.711 9.40421 22.8314 9.70731 22.8314H18.8502C19.1533 22.8314 19.444 22.711 19.6583 22.4967C19.8726 22.2824 19.993 21.9917 19.993 21.6886V14.26C19.9512 14.2632 19.9092 14.2632 19.8673 14.26H8.69017ZM18.2787 18.26C18.2787 18.4116 18.2185 18.5569 18.1114 18.6641C18.0042 18.7712 17.8589 18.8314 17.7073 18.8314C17.5558 18.8314 17.4104 18.7712 17.3032 18.6641C17.1961 18.5569 17.1359 18.4116 17.1359 18.26V15.9743C17.1359 15.8227 17.1961 15.6774 17.3032 15.5702C17.4104 15.4631 17.5558 15.4029 17.7073 15.4029C17.8589 15.4029 18.0042 15.4631 18.1114 15.5702C18.2185 15.6774 18.2787 15.8227 18.2787 15.9743V18.26Z" fill="white"/>
<path d="M18.8502 6.83154H9.70731C9.40421 6.83154 9.11352 6.95195 8.89919 7.16627C8.68486 7.3806 8.56445 7.67129 8.56445 7.97439V13.1173C8.6063 13.114 8.64832 13.114 8.69017 13.1173H19.8673C19.9092 13.114 19.9512 13.114 19.993 13.1173V7.97439C19.993 7.67129 19.8726 7.3806 19.6583 7.16627C19.444 6.95195 19.1533 6.83154 18.8502 6.83154ZM18.2787 11.9744C18.2787 12.126 18.2185 12.2713 18.1114 12.3785C18.0042 12.4856 17.8589 12.5458 17.7073 12.5458C17.5558 12.5458 17.4104 12.4856 17.3032 12.3785C17.1961 12.2713 17.1359 12.126 17.1359 11.9744V9.68868C17.1359 9.53713 17.1961 9.39178 17.3032 9.28462C17.4104 9.17746 17.5558 9.11725 17.7073 9.11725C17.8589 9.11725 18.0042 9.17746 18.1114 9.28462C18.2185 9.39178 18.2787 9.53713 18.2787 9.68868V11.9744Z" fill="white"/>
</g>
</g>
<defs>
<clipPath id="clip0_281_7476">
<rect width="28" height="29" fill="white" transform="translate(0 0.200195)"/>
</clipPath>
<clipPath id="clip1_281_7476">
<rect width="28" height="29" fill="white" transform="translate(0 0.200195)"/>
</clipPath>
</defs>
</svg>
