<svg width="28" height="30" viewBox="0 0 28 30" fill="none" xmlns="http://www.w3.org/2000/svg">
<g clip-path="url(#clip0_281_7438)">
<g clip-path="url(#clip1_281_7438)">
<path d="M0 14.4653C0 6.73335 6.26801 0.465332 14 0.465332C21.732 0.465332 28 6.73335 28 14.4653C28 22.1973 21.732 28.4653 14 28.4653C6.26801 28.4653 0 22.1973 0 14.4653Z" fill="#14161C"/>
<path d="M8.45835 20.0504H15.2528C16.6323 20.0504 17.4338 19.27 17.4338 17.9126V11.5686C17.4338 10.2164 16.6863 9.43604 15.3069 9.43604H8.45835C7.12646 9.43604 6.27734 10.2164 6.27734 11.5697V17.9486C6.27734 19.306 7.07771 20.0504 8.45835 20.0504ZM18.371 16.7995L20.5914 18.7144C20.8512 18.9403 21.1311 19.086 21.398 19.086C21.9229 19.086 22.2773 18.7093 22.2773 18.1492V11.3662C22.2773 10.8062 21.9229 10.4294 21.398 10.4294C21.13 10.4294 20.8524 10.5752 20.5914 10.8011L18.371 12.7106V16.7995Z" fill="white"/>
</g>
</g>
<defs>
<clipPath id="clip0_281_7438">
<rect width="28" height="29" fill="white" transform="translate(0 0.200195)"/>
</clipPath>
<clipPath id="clip1_281_7438">
<rect width="28" height="29" fill="white" transform="translate(0 0.200195)"/>
</clipPath>
</defs>
</svg>
