<svg width="24" height="25" viewBox="0 0 24 25" fill="none" xmlns="http://www.w3.org/2000/svg">
<path d="M22.4064 10.7586L22.6495 9.89208L22.6495 9.89206L22.4064 10.7586ZM20.5975 10.2512L20.3495 11.1164L20.3545 11.1178L20.5975 10.2512ZM23.0439 13.2866L23.9439 13.2867V13.2866H23.0439ZM22.4064 14.1148L22.6495 14.9813L22.6495 14.9813L22.4064 14.1148ZM20.5983 14.6221L20.3552 13.7555L20.3502 13.757L20.5983 14.6221ZM20.3064 14.9077L21.1661 15.1739L21.1683 15.1665L20.3064 14.9077ZM19.6728 16.4117L20.4592 16.8494L20.4639 16.8408L19.6728 16.4117ZM19.6735 16.8144L18.8888 17.2551L18.8905 17.258L19.6735 16.8144ZM20.5813 18.4166L19.7982 18.8602L19.7982 18.8603L20.5813 18.4166ZM20.434 19.4438L21.0637 20.0869L21.0637 20.0869L20.434 19.4438ZM19.2004 20.6517L19.83 21.2948L19.83 21.2948L19.2004 20.6517ZM18.1511 20.7959L18.5808 20.0051L18.5808 20.005L18.1511 20.7959ZM16.515 19.907L16.9446 19.1162L16.9418 19.1147L16.515 19.907ZM16.1037 19.9062L16.5189 20.7047L16.5272 20.7003L16.1037 19.9062ZM14.5677 20.5265L14.8165 21.3915L14.8237 21.3893L14.5677 20.5265ZM14.276 20.8124L13.4137 20.5545L13.4122 20.5596L14.276 20.8124ZM13.7578 22.5827L14.6216 22.8355L14.6216 22.8355L13.7578 22.5827ZM11.1759 23.2069V22.3069H11.1759L11.1759 23.2069ZM10.3301 22.583L9.46632 22.8359L9.46641 22.8362L10.3301 22.583ZM9.81165 20.8124L10.6754 20.5595L10.6738 20.5541L9.81165 20.8124ZM9.51975 20.5265L9.26368 21.3894L9.27103 21.3915L9.51975 20.5265ZM7.98415 19.9062L7.56048 20.7003L7.56884 20.7046L7.98415 19.9062ZM7.57284 19.907L7.14617 19.1145L7.14328 19.1161L7.57284 19.907ZM5.93657 20.7957L5.507 20.0048L5.50698 20.0048L5.93657 20.7957ZM4.88735 20.6515L5.51704 20.0084L5.51701 20.0084L4.88735 20.6515ZM3.65376 19.4436L4.28343 18.8005L4.28338 18.8005L3.65376 19.4436ZM3.50645 18.4164L2.7235 17.9725L2.72338 17.9727L3.50645 18.4164ZM4.41443 16.8146L5.19739 17.2585L5.19901 17.2556L4.41443 16.8146ZM4.41558 16.4123L3.62429 16.8412L3.62853 16.8489L4.41558 16.4123ZM3.78198 14.9081L2.91961 15.1658L2.92226 15.1743L3.78198 14.9081ZM3.48999 14.6222L3.73786 13.757L3.73312 13.7556L3.48999 14.6222ZM1.68151 14.1148L1.43835 14.9813L1.43838 14.9813L1.68151 14.1148ZM1.04395 11.5868H1.94395V11.5867L1.04395 11.5868ZM1.68133 10.7585L1.43823 9.89198L1.438 9.89205L1.68133 10.7585ZM3.48938 10.2513L3.73248 11.1179L3.73744 11.1164L3.48938 10.2513ZM3.78136 9.96567L2.92155 9.69962L2.91934 9.70697L3.78136 9.96567ZM4.41496 8.46216L3.62894 8.02367L3.62397 8.03282L4.41496 8.46216ZM4.41435 8.05936L5.19899 7.61851L5.19736 7.61564L4.41435 8.05936ZM3.50645 6.45719L4.28947 6.01348L4.28935 6.01327L3.50645 6.45719ZM3.65367 5.42963L4.28322 6.0728L4.28325 6.07278L3.65367 5.42963ZM4.88752 4.22182L5.51709 4.86497L5.51722 4.86484L4.88752 4.22182ZM5.93675 4.07759L6.36648 3.28681L6.36633 3.28673L5.93675 4.07759ZM7.57284 4.96669L7.14311 5.75747L7.14601 5.75903L7.57284 4.96669ZM7.98415 4.96755L7.56884 4.16905L7.56067 4.1734L7.98415 4.96755ZM9.51984 4.34719L9.2713 3.48215L9.26379 3.48438L9.51984 4.34719ZM9.81174 4.0613L10.6739 4.31943L10.6755 4.3141L9.81174 4.0613ZM10.3299 2.29086L9.46612 2.03804L9.46611 2.03807L10.3299 2.29086ZM13.758 2.29086L14.6218 2.03805L14.6218 2.03804L13.758 2.29086ZM14.2762 4.06113L13.4124 4.31395L13.4138 4.31866L14.2762 4.06113ZM14.5676 4.34701L14.8237 3.48418L14.8168 3.48221L14.5676 4.34701ZM16.1036 4.96738L16.5278 4.1735L16.5188 4.16885L16.1036 4.96738ZM16.5149 4.9666L16.942 5.7588L16.9445 5.75742L16.5149 4.9666ZM18.1511 4.07759L18.5808 4.8684L18.5809 4.86835L18.1511 4.07759ZM19.2005 4.22174L19.8303 3.57872L19.8303 3.57872L19.2005 4.22174ZM20.4342 5.42989L19.8045 6.0729L19.8046 6.07297L20.4342 5.42989ZM20.5814 6.45719L21.3643 6.90114L21.3644 6.90093L20.5814 6.45719ZM19.6733 8.05867L18.8904 7.61471L18.8889 7.61737L19.6733 8.05867ZM19.6721 8.46095L20.4634 8.03211L20.4591 8.02442L19.6721 8.46095ZM20.3056 9.96541L21.168 9.70757L21.1654 9.6992L20.3056 9.96541ZM14.8442 15.1786L14.2145 14.5355L14.2145 14.5355L14.8442 15.1786ZM22.6495 9.89206L20.8406 9.38466L20.3545 11.1178L22.1633 11.6252L22.6495 9.89206ZM23.9439 11.5869C23.9439 10.7879 23.4046 10.104 22.6495 9.89208L22.1632 11.6251C22.1633 11.6252 22.1619 11.6247 22.1598 11.6233C22.1579 11.622 22.1557 11.6201 22.1535 11.6173C22.1489 11.6113 22.1439 11.6002 22.1439 11.5869H23.9439ZM23.9439 13.2866V11.5869H22.1439V13.2866H23.9439ZM22.6495 14.9813C23.4045 14.7694 23.9439 14.0856 23.9439 13.2867L22.1439 13.2865C22.1439 13.2731 22.1489 13.2621 22.1535 13.2561C22.1557 13.2533 22.1579 13.2514 22.1598 13.2501C22.1619 13.2487 22.1633 13.2482 22.1632 13.2482L22.6495 14.9813ZM20.8415 15.4886L22.6495 14.9813L22.1632 13.2482L20.3552 13.7555L20.8415 15.4886ZM21.1683 15.1665C21.1197 15.3286 20.9939 15.4449 20.8465 15.4872L20.3502 13.757C19.9215 13.8799 19.5757 14.2115 19.4444 14.6489L21.1683 15.1665ZM20.4639 16.8408C20.7523 16.3089 20.9875 15.7507 21.1661 15.1739L19.4466 14.6415C19.3031 15.1052 19.1139 15.5543 18.8816 15.9827L20.4639 16.8408ZM20.4582 16.3736C20.541 16.5209 20.5414 16.7017 20.4592 16.8494L18.8863 15.9741C18.6644 16.3729 18.6654 16.8572 18.8888 17.2551L20.4582 16.3736ZM21.3643 17.973L20.4566 16.3707L18.8905 17.258L19.7982 18.8602L21.3643 17.973ZM21.0637 20.0869C21.6307 19.5317 21.7576 18.6671 21.3643 17.9729L19.7982 18.8603C19.7932 18.8513 19.7906 18.8387 19.7923 18.8267C19.794 18.8147 19.7996 18.8054 19.8044 18.8008L21.0637 20.0869ZM19.83 21.2948L21.0637 20.0869L19.8044 18.8008L18.5707 20.0086L19.83 21.2948ZM17.7215 21.5867C18.4095 21.9605 19.2678 21.8453 19.83 21.2948L18.5707 20.0086C18.575 20.0044 18.5785 20.004 18.5779 20.0041C18.5772 20.0042 18.5786 20.0039 18.5808 20.0051L17.7215 21.5867ZM16.0853 20.6979L17.7215 21.5867L18.5808 20.005L16.9446 19.1162L16.0853 20.6979ZM16.5272 20.7003C16.3896 20.7737 16.2255 20.7734 16.0881 20.6994L16.9418 19.1147C16.5485 18.9029 16.0744 18.9019 15.6803 19.112L16.5272 20.7003ZM14.8237 21.3893C15.4099 21.2154 15.9776 20.9862 16.5189 20.7047L15.6886 19.1077C15.2493 19.3361 14.7881 19.5223 14.3117 19.6637L14.8237 21.3893ZM15.1382 21.0703C15.0897 21.2325 14.964 21.349 14.8165 21.3915L14.3189 19.6616C13.8902 19.7849 13.5446 20.1169 13.4137 20.5545L15.1382 21.0703ZM14.6216 22.8355L15.1397 21.0652L13.4122 20.5596L12.8941 22.3299L14.6216 22.8355ZM12.9119 24.1069C13.6932 24.1069 14.3981 23.5991 14.6216 22.8355L12.8941 22.3299C12.8975 22.3183 12.904 22.3115 12.9072 22.3092C12.9101 22.307 12.9123 22.3069 12.9119 22.3069V24.1069ZM11.1759 24.1069H12.9119V22.3069H11.1759V24.1069ZM9.46641 22.8362C9.69016 23.5995 10.3949 24.1069 11.1759 24.1069L11.1759 22.3069C11.1755 22.3069 11.1777 22.307 11.1806 22.3092C11.1837 22.3115 11.1903 22.3182 11.1937 22.3298L9.46641 22.8362ZM8.94791 21.0653L9.46632 22.8359L11.1938 22.3301L10.6754 20.5595L8.94791 21.0653ZM9.27103 21.3915C9.1237 21.3491 8.99806 21.2328 8.94952 21.0707L10.6738 20.5541C10.5427 20.1166 10.1971 19.7848 9.76848 19.6616L9.27103 21.3915ZM7.56884 20.7046C8.11005 20.9861 8.67767 21.2154 9.26369 21.3893L9.77582 19.6637C9.29951 19.5224 8.83857 19.3361 8.39947 19.1077L7.56884 20.7046ZM7.99951 20.6994C7.86219 20.7733 7.69805 20.7736 7.56051 20.7002L8.4078 19.1121C8.01372 18.9019 7.53949 18.9027 7.14617 19.1145L7.99951 20.6994ZM6.36613 21.5866L8.00241 20.6978L7.14328 19.1161L5.507 20.0048L6.36613 21.5866ZM4.25765 21.2945C4.81986 21.8451 5.67816 21.9603 6.36616 21.5866L5.50698 20.0048C5.50918 20.0037 5.51052 20.004 5.50987 20.0039C5.50925 20.0038 5.51273 20.0042 5.51704 20.0084L4.25765 21.2945ZM3.0241 20.0866L4.25768 21.2945L5.51701 20.0084L4.28343 18.8005L3.0241 20.0866ZM2.72338 17.9727C2.3301 18.6669 2.45714 19.5316 3.02415 20.0867L4.28338 18.8005C4.28813 18.8051 4.29372 18.8144 4.29542 18.8263C4.29715 18.8383 4.29459 18.851 4.28952 18.86L2.72338 17.9727ZM3.63148 16.3708L2.7235 17.9725L4.2894 18.8602L5.19738 17.2585L3.63148 16.3708ZM3.62853 16.8489C3.54666 16.7013 3.5472 16.5207 3.62985 16.3737L5.19901 17.2556C5.42234 16.8582 5.42375 16.3745 5.20263 15.9758L3.62853 16.8489ZM2.92226 15.1743C3.10086 15.751 3.33602 16.3093 3.62433 16.8412L5.20682 15.9835C4.97454 15.5549 4.78532 15.1056 4.6417 14.6418L2.92226 15.1743ZM3.24213 15.4874C3.09431 15.445 2.96823 15.3283 2.91966 15.1657L4.6443 14.6504C4.51336 14.2122 4.16716 13.88 3.73786 13.757L3.24213 15.4874ZM1.43838 14.9813L3.24687 15.4887L3.73312 13.7556L1.92463 13.2482L1.43838 14.9813ZM0.143945 13.2865C0.143945 14.0854 0.683293 14.7694 1.43835 14.9813L1.92466 13.2482C1.92459 13.2482 1.92602 13.2487 1.92811 13.2501C1.93001 13.2514 1.93219 13.2533 1.93437 13.2561C1.93897 13.2621 1.94395 13.2731 1.94395 13.2865H0.143945ZM0.143945 11.5868V13.2865H1.94395V11.5868H0.143945ZM1.438 9.89205C0.683074 10.104 0.143899 10.788 0.143945 11.5868L1.94395 11.5867C1.94395 11.6001 1.93897 11.6112 1.93437 11.6171C1.9322 11.62 1.93002 11.6219 1.92811 11.6232C1.92602 11.6246 1.92459 11.625 1.92466 11.625L1.438 9.89205ZM3.24628 9.38475L1.43823 9.89198L1.92443 11.6251L3.73248 11.1178L3.24628 9.38475ZM2.91934 9.70697C2.968 9.54484 3.09383 9.42845 3.24131 9.38616L3.73744 11.1164C4.16622 10.9935 4.51209 10.6618 4.64338 10.2244L2.91934 9.70697ZM3.62397 8.03282C3.33534 8.56459 3.10006 9.12281 2.92158 9.69963L4.64114 10.2317C4.78452 9.76835 4.97364 9.31949 5.20595 8.8915L3.62397 8.03282ZM3.6297 8.50019C3.54681 8.35265 3.54652 8.17154 3.62899 8.0237L5.20093 8.90062C5.4235 8.50165 5.42274 8.01678 5.19899 7.61852L3.6297 8.50019ZM2.72343 6.9009L3.63133 8.50307L5.19736 7.61564L4.28947 6.01348L2.72343 6.9009ZM3.02413 4.78646C2.45683 5.34173 2.32985 6.20677 2.72355 6.90111L4.28935 6.01327C4.29443 6.02223 4.29699 6.03492 4.29527 6.04692C4.29356 6.05885 4.28797 6.06815 4.28322 6.0728L3.02413 4.78646ZM4.25795 3.57868L3.0241 4.78648L4.28325 6.07278L5.51709 4.86497L4.25795 3.57868ZM6.36633 3.28673C5.67834 2.91302 4.82004 3.02823 4.25782 3.5788L5.51722 4.86484C5.51291 4.86907 5.50943 4.86947 5.51005 4.86939C5.5107 4.8693 5.50936 4.86964 5.50716 4.86844L6.36633 3.28673ZM8.00257 4.17591L6.36648 3.28681L5.50701 4.86837L7.14311 5.75747L8.00257 4.17591ZM7.56067 4.1734C7.69824 4.10005 7.86237 4.10037 7.99968 4.17434L7.14601 5.75903C7.53928 5.97089 8.0135 5.97186 8.40763 5.76169L7.56067 4.1734ZM9.26379 3.48438C8.67774 3.6583 8.1101 3.88758 7.56886 4.16909L8.39945 5.766C8.83858 5.5376 9.29955 5.35136 9.7759 5.20999L9.26379 3.48438ZM8.94955 3.80318C8.9981 3.64102 9.12385 3.52455 9.27131 3.48218L9.76837 5.21219C10.1972 5.08899 10.5429 4.75707 10.6739 4.31943L8.94955 3.80318ZM9.46611 2.03807L8.94797 3.80851L10.6755 4.3141L11.1936 2.54366L9.46611 2.03807ZM11.1758 0.766626C10.3945 0.766626 9.68963 1.27444 9.46612 2.03804L11.1936 2.54369C11.1902 2.55529 11.1837 2.56204 11.1806 2.56434C11.1776 2.56653 11.1754 2.56663 11.1758 2.56663V0.766626ZM12.9121 0.766626H11.1758V2.56663H12.9121V0.766626ZM14.6218 2.03804C14.3983 1.27444 13.6934 0.766626 12.9121 0.766626V2.56663C12.9125 2.56663 12.9103 2.56653 12.9073 2.56434C12.9042 2.56204 12.8976 2.55529 12.8943 2.54369L14.6218 2.03804ZM15.1399 3.80832L14.6218 2.03805L12.8942 2.54368L13.4124 4.31395L15.1399 3.80832ZM14.8168 3.48221C14.9643 3.52472 15.0901 3.64134 15.1385 3.80361L13.4138 4.31866C13.5445 4.75625 13.8898 5.08831 14.3184 5.21181L14.8168 3.48221ZM16.5188 4.16885C15.9775 3.8874 15.4098 3.65815 14.8237 3.48421L14.3116 5.20982C14.788 5.35123 15.2492 5.53749 15.6885 5.7659L16.5188 4.16885ZM16.0878 4.1744C16.2254 4.10021 16.3899 4.09992 16.5277 4.17355L15.6796 5.7612C16.0738 5.97183 16.5485 5.97095 16.942 5.7588L16.0878 4.1744ZM17.7215 3.28677L16.0852 4.17578L16.9445 5.75742L18.5808 4.8684L17.7215 3.28677ZM19.8303 3.57872C19.2679 3.02804 18.4094 2.91289 17.7214 3.28683L18.5809 4.86835C18.5787 4.86955 18.5774 4.86921 18.578 4.8693C18.5786 4.86938 18.5752 4.86898 18.5708 4.86475L19.8303 3.57872ZM21.0639 4.78688L19.8303 3.57872L18.5708 4.86475L19.8045 6.0729L21.0639 4.78688ZM21.3644 6.90093C21.7579 6.20672 21.6309 5.342 21.0639 4.78681L19.8046 6.07297C19.7998 6.06832 19.7942 6.05901 19.7925 6.04709C19.7908 6.03509 19.7934 6.0224 19.7984 6.01344L21.3644 6.90093ZM20.4562 8.50262L21.3643 6.90114L19.7986 6.01324L18.8904 7.61471L20.4562 8.50262ZM20.4591 8.02442C20.541 8.17215 20.5404 8.35282 20.4577 8.49996L18.8889 7.61737C18.6653 8.01477 18.6638 8.49867 18.885 8.89749L20.4591 8.02442ZM21.1654 9.6992C20.9868 9.12239 20.7516 8.5641 20.4633 8.03213L18.8808 8.88978C19.1131 9.31839 19.3023 9.76777 19.4459 10.2316L21.1654 9.6992ZM20.8455 9.38605C20.9933 9.42841 21.1193 9.54509 21.1679 9.70758L19.4434 10.2232C19.5743 10.6612 19.9204 10.9934 20.3495 11.1164L20.8455 9.38605ZM12.044 15.4142C10.336 15.4142 8.98401 14.0634 8.98401 12.4369H7.18401C7.18401 15.0931 9.37792 17.2142 12.044 17.2142V15.4142ZM14.2145 14.5355C13.642 15.096 12.8616 15.4142 12.044 15.4142V17.2142C13.3269 17.2142 14.561 16.7154 15.4738 15.8216L14.2145 14.5355ZM15.104 12.4369C15.104 13.2203 14.7863 13.9756 14.2145 14.5355L15.4738 15.8216C16.3873 14.9273 16.904 13.7101 16.904 12.4369H15.104ZM12.044 9.45967C13.752 9.45967 15.104 10.8105 15.104 12.4369H16.904C16.904 9.78069 14.7101 7.65967 12.044 7.65967V9.45967ZM8.98401 12.4369C8.98401 10.8105 10.336 9.45967 12.044 9.45967V7.65967C9.37792 7.65967 7.18401 9.78069 7.18401 12.4369H8.98401Z" fill="#333333"/>
</svg>
