<svg width="21" height="22" viewBox="0 0 21 22" fill="none" xmlns="http://www.w3.org/2000/svg">
<g clip-path="url(#clip0_24_142)">
<path d="M6.95111 9.33887L11.5467 6.45533L13.0788 5.49355" stroke="#24242C" stroke-width="1.5" stroke-linecap="round" stroke-linejoin="round"/>
<path d="M18.6232 5.12193C18.3683 5.61184 17.9707 6.01672 17.4807 6.28538C16.9908 6.55404 16.4304 6.67441 15.8706 6.63127C15.3108 6.58813 14.7766 6.38342 14.3356 6.04302C13.8946 5.70262 13.5665 5.24183 13.393 4.71891C13.2195 4.19598 13.2082 3.63442 13.3606 3.10523C13.5131 2.57605 13.8224 2.103 14.2494 1.74591C14.6764 1.38882 15.202 1.16373 15.7596 1.09911C16.3173 1.03448 16.882 1.13322 17.3824 1.38284C18.0534 1.71757 18.561 2.29956 18.7937 3.00077C19.0264 3.70199 18.9651 4.46499 18.6232 5.12193V5.12193Z" stroke="#24242C" stroke-width="1.5" stroke-linecap="round" stroke-linejoin="round"/>
<path d="M6.37812 12.7273C6.12317 13.2172 5.72558 13.6221 5.23561 13.8907C4.74565 14.1594 4.18532 14.2798 3.62548 14.2366C3.06565 14.1935 2.53145 13.9888 2.09044 13.6484C1.64944 13.308 1.32143 12.8472 1.14789 12.3243C0.974359 11.8014 0.963096 11.2398 1.11553 10.7106C1.26796 10.1814 1.57724 9.70836 2.00426 9.35128C2.43128 8.99419 2.95685 8.7691 3.51453 8.70447C4.0722 8.63985 4.63692 8.73859 5.13728 8.98821C5.80824 9.32293 6.31592 9.90492 6.54862 10.6061C6.78132 11.3074 6.71999 12.0704 6.37812 12.7273V12.7273Z" stroke="#24242C" stroke-width="1.5" stroke-linecap="round" stroke-linejoin="round"/>
<path d="M19.4269 19.2374C19.172 19.7273 18.7744 20.1322 18.2844 20.4008C17.7945 20.6695 17.2341 20.7899 16.6743 20.7467C16.1145 20.7036 15.5803 20.4989 15.1393 20.1585C14.6983 19.8181 14.3703 19.3573 14.1967 18.8344C14.0232 18.3114 14.0119 17.7499 14.1644 17.2207C14.3168 16.6915 14.6261 16.2185 15.0531 15.8614C15.4801 15.5043 16.0057 15.2792 16.5634 15.2146C17.121 15.1499 17.6858 15.2487 18.1861 15.4983C18.8571 15.833 19.3647 16.415 19.5974 17.1162C19.8301 17.8174 19.7688 18.5805 19.4269 19.2374V19.2374Z" stroke="#24242C" stroke-width="1.5" stroke-linecap="round" stroke-linejoin="round"/>
<path d="M13.2757 16.7858L8.3844 14.4141L6.75328 13.6235" stroke="#24242C" stroke-width="1.5" stroke-linecap="round" stroke-linejoin="round"/>
</g>
<defs>
<clipPath id="clip0_24_142">
<rect width="21" height="22" fill="white"/>
</clipPath>
</defs>
</svg>
