<svg width="28" height="30" viewBox="0 0 28 30" fill="none" xmlns="http://www.w3.org/2000/svg">
<g clip-path="url(#clip0_281_7511)">
<rect y="0.200195" width="28" height="29" rx="14" fill="#14161C"/>
<g clip-path="url(#clip1_281_7511)">
<g clip-path="url(#clip2_281_7511)">
<path d="M0 14.7305C0 6.99849 6.26801 0.730469 14 0.730469C21.732 0.730469 28 6.99849 28 14.7305C28 22.4625 21.732 28.7305 14 28.7305C6.26801 28.7305 0 22.4625 0 14.7305Z" fill="#14161C"/>
<path d="M20.2773 17.2039H8.27734C7.17277 17.2039 6.27734 18.0993 6.27734 19.2039V20.2972C6.27734 21.4018 7.17277 22.2972 8.27734 22.2972H20.2773C21.3819 22.2972 22.2773 21.4018 22.2773 20.2972V19.2039C22.2773 18.0993 21.3819 17.2039 20.2773 17.2039Z" fill="white"/>
<path d="M19.6055 22.2971V17.2038" stroke="#202127"/>
<path d="M20.4683 8.01798C20.4835 7.94813 20.5144 7.88448 20.5579 7.83387C20.6013 7.78327 20.6556 7.74761 20.7149 7.73074C20.7742 7.71387 20.8362 7.71641 20.8944 7.73811C20.9525 7.7598 21.0046 7.79983 21.045 7.85388C21.6908 8.71119 22.119 9.67623 22.2401 10.8599C22.37 12.1327 22.1447 13.2782 21.5481 14.336C21.4305 14.5442 21.3267 14.7633 21.2149 14.9765C20.9408 15.4988 20.719 16.0433 20.6156 16.6511C20.605 16.7124 20.5824 16.77 20.5494 16.8189C20.5164 16.8679 20.474 16.9069 20.4258 16.9327C20.3776 16.9585 20.3248 16.9705 20.272 16.9675C20.2191 16.9645 20.1675 16.9467 20.1216 16.9156C19.2375 16.3188 18.451 15.6429 18.175 14.3542C17.9643 13.3732 18.0304 12.4491 18.5371 11.6072C19.003 10.8345 19.4873 10.0731 19.9471 9.29348C20.1826 8.90764 20.359 8.47593 20.4683 8.01798Z" fill="white"/>
</g>
</g>
</g>
<defs>
<clipPath id="clip0_281_7511">
<rect y="0.200195" width="28" height="29" rx="14" fill="white"/>
</clipPath>
<clipPath id="clip1_281_7511">
<rect width="28" height="29" fill="white" transform="translate(0 0.200195)"/>
</clipPath>
<clipPath id="clip2_281_7511">
<rect width="28" height="29" fill="white" transform="translate(0 0.200195)"/>
</clipPath>
</defs>
</svg>
