<svg width="28" height="30" viewBox="0 0 28 30" fill="none" xmlns="http://www.w3.org/2000/svg">
<g clip-path="url(#clip0_281_7497)">
<rect y="0.200195" width="28" height="29" rx="14" fill="#14161C"/>
<g clip-path="url(#clip1_281_7497)">
<g clip-path="url(#clip2_281_7497)">
<path d="M0 14.6421C0 6.91011 6.26801 0.64209 14 0.64209C21.732 0.64209 28 6.91011 28 14.6421C28 22.3741 21.732 28.6421 14 28.6421C6.26801 28.6421 0 22.3741 0 14.6421Z" fill="#14161C"/>
<path d="M9.6011 8.99372C10.6901 8.1307 11.997 7.58656 13.3767 7.42177C13.4175 7.41715 13.4588 7.42123 13.4979 7.43375C13.537 7.44626 13.573 7.46692 13.6035 7.49436C13.634 7.5218 13.6584 7.55541 13.675 7.59296C13.6916 7.63051 13.7 7.67115 13.6998 7.7122V14.3383H11.9318C11.7875 12.4681 10.9507 10.719 9.58513 9.43299C9.55458 9.4046 9.5305 9.36996 9.51454 9.33143C9.49857 9.2929 9.49109 9.25138 9.49261 9.2097C9.49412 9.16802 9.5046 9.12716 9.52332 9.08989C9.54204 9.05262 9.56857 9.01982 9.6011 8.99372ZM8.32321 10.2774C7.47629 11.3583 6.94167 12.6505 6.7774 14.0138C6.77256 14.0547 6.77648 14.0962 6.78889 14.1354C6.8013 14.1747 6.82193 14.2109 6.84939 14.2416C6.87686 14.2723 6.91054 14.2968 6.9482 14.3135C6.98586 14.3301 7.02664 14.3386 7.06783 14.3383H10.765C10.6217 12.7714 9.90439 11.3127 8.75087 10.2426C8.72132 10.215 8.68636 10.194 8.64822 10.1807C8.61008 10.1675 8.56959 10.1624 8.52935 10.1656C8.48911 10.1689 8.44999 10.1805 8.4145 10.1998C8.37901 10.219 8.34792 10.2455 8.32321 10.2774ZM18.9529 8.99372C17.864 8.1307 16.557 7.58656 15.1773 7.42177C15.1365 7.41715 15.0952 7.42123 15.0561 7.43375C15.017 7.44626 14.981 7.46692 14.9505 7.49436C14.92 7.5218 14.8956 7.55541 14.879 7.59296C14.8624 7.63051 14.854 7.67115 14.8542 7.7122V14.3383H16.6186C16.7629 12.4681 17.5997 10.719 18.9653 9.43299C18.996 9.40485 19.0204 9.37042 19.0366 9.33203C19.0529 9.29365 19.0607 9.25221 19.0596 9.21053C19.0584 9.16886 19.0483 9.12792 19.0299 9.09051C19.0115 9.0531 18.9852 9.02009 18.9529 8.99372ZM21.7744 14.0138C21.6108 12.6507 21.077 11.3585 20.2308 10.2774C20.2061 10.2458 20.1751 10.2197 20.1398 10.2006C20.1045 10.1816 20.0657 10.1701 20.0257 10.1668C19.9857 10.1635 19.9455 10.1686 19.9076 10.1816C19.8697 10.1947 19.8348 10.2154 19.8053 10.2426C18.651 11.3124 17.9329 12.7711 17.789 14.3383H21.4855C21.5265 14.3384 21.5671 14.3298 21.6046 14.313C21.6421 14.2962 21.6756 14.2717 21.7029 14.241C21.7302 14.2104 21.7507 14.1743 21.7631 14.1351C21.7754 14.0959 21.7793 14.0546 21.7744 14.0138ZM6.77958 15.8246C6.94321 17.1877 7.47707 18.4799 8.32321 19.561C8.34791 19.5926 8.37889 19.6187 8.41419 19.6378C8.44949 19.6568 8.48835 19.6683 8.52832 19.6716C8.56829 19.6749 8.60851 19.6698 8.64644 19.6568C8.68436 19.6437 8.71918 19.623 8.74869 19.5958C9.90302 18.526 10.6211 17.0673 10.765 15.5001H7.06856C7.02749 15.5 6.98687 15.5086 6.94939 15.5254C6.9119 15.5422 6.8784 15.5667 6.85109 15.5974C6.82378 15.628 6.80329 15.6641 6.79096 15.7033C6.77863 15.7425 6.77476 15.7838 6.77958 15.8246ZM20.2308 19.561C21.0777 18.4801 21.6124 17.1879 21.7766 15.8246C21.7815 15.7837 21.7775 15.7422 21.7651 15.703C21.7527 15.6637 21.7321 15.6275 21.7046 15.5968C21.6772 15.5661 21.6435 15.5416 21.6058 15.5249C21.5682 15.5083 21.5274 15.4998 21.4862 15.5001H17.789C17.9323 17.067 18.6496 18.5257 19.8032 19.5958C19.8327 19.6234 19.8677 19.6444 19.9058 19.6577C19.9439 19.6709 19.9844 19.676 20.0247 19.6728C20.0649 19.6695 20.104 19.6579 20.1395 19.6386C20.175 19.6194 20.2061 19.5929 20.2308 19.561ZM9.6011 20.8447C10.6901 21.7077 11.997 22.2518 13.3767 22.4166C13.4175 22.4212 13.4588 22.4172 13.4979 22.4047C13.537 22.3921 13.573 22.3715 13.6035 22.344C13.634 22.3166 13.6584 22.283 13.675 22.2454C13.6916 22.2079 13.7 22.1673 13.6998 22.1262V15.5001H11.9318C11.7875 17.3703 10.9507 19.1194 9.58513 20.4054C9.55458 20.4338 9.5305 20.4684 9.51454 20.507C9.49857 20.5455 9.49109 20.587 9.49261 20.6287C9.49412 20.6704 9.5046 20.7112 9.52332 20.7485C9.54204 20.7858 9.56857 20.8186 9.6011 20.8447ZM16.6222 15.5001H14.8579V22.1277C14.8576 22.1687 14.8661 22.2093 14.8826 22.2469C14.8992 22.2844 14.9236 22.318 14.9541 22.3455C14.9847 22.3729 15.0207 22.3936 15.0598 22.4061C15.0989 22.4186 15.1402 22.4227 15.181 22.4181C16.5606 22.2533 17.8676 21.7092 18.9566 20.8461C18.9891 20.82 19.0156 20.7872 19.0343 20.75C19.0531 20.7127 19.0635 20.6718 19.065 20.6302C19.0666 20.5885 19.0591 20.547 19.0431 20.5084C19.0272 20.4699 19.0031 20.4353 18.9725 20.4069C17.6053 19.1211 16.7672 17.3713 16.6222 15.5001Z" fill="white"/>
</g>
</g>
</g>
<defs>
<clipPath id="clip0_281_7497">
<rect y="0.200195" width="28" height="29" rx="14" fill="white"/>
</clipPath>
<clipPath id="clip1_281_7497">
<rect width="28" height="29" fill="white" transform="translate(0 0.200195)"/>
</clipPath>
<clipPath id="clip2_281_7497">
<rect width="28" height="29" fill="white" transform="translate(0 0.200195)"/>
</clipPath>
</defs>
</svg>
