<svg width="40" height="41" viewBox="0 0 40 41" fill="none" xmlns="http://www.w3.org/2000/svg">
<path d="M0.84908 20.5262C0.848148 23.8981 1.72863 27.1905 3.40284 30.0925L0.688965 40.0078L10.8294 37.3472C13.6341 38.8751 16.7766 39.6756 19.97 39.6758H19.9784C30.5203 39.6758 39.1017 31.0919 39.1063 20.5413C39.1083 15.4287 37.1204 10.6212 33.5086 7.00425C29.8974 3.38764 25.0948 1.39485 19.9776 1.39252C9.43438 1.39252 0.853588 9.97593 0.849236 20.5262" fill="url(#paint0_linear_338_1210)"/>
<path d="M0.84908 20.5262C0.848148 23.8981 1.72863 27.1905 3.40284 30.0925L0.688965 40.0078L10.8294 37.3472C13.6341 38.8751 16.7766 39.6756 19.97 39.6758H19.9784C30.5203 39.6758 39.1017 31.0919 39.1063 20.5413C39.1083 15.4287 37.1204 10.6212 33.5086 7.00425C29.8974 3.38764 25.0948 1.39485 19.9776 1.39252C9.43438 1.39252 0.853588 9.97593 0.849236 20.5262" fill="url(#paint1_linear_338_1210)"/>
<path d="M0.166334 20.5201C0.165245 24.0134 1.07728 27.4236 2.81119 30.4295L0 40.7002L10.504 37.9443C13.3982 39.5233 16.6568 40.3558 19.9726 40.357H19.9812C30.9013 40.357 39.791 31.4644 39.7957 20.536C39.7975 15.2397 37.7381 10.2594 33.9973 6.5129C30.2561 2.76687 25.2816 0.702373 19.9812 0.700195C9.05911 0.700195 0.170686 9.59161 0.166334 20.5201ZM6.42172 29.9118L6.02951 29.2888C4.38079 26.6656 3.51057 23.6342 3.51181 20.5214C3.51539 11.4379 10.9031 4.0477 19.9874 4.0477C24.3867 4.04956 28.5211 5.76562 31.6307 8.87917C34.7402 11.993 36.4513 16.1323 36.4502 20.5348C36.4462 29.6183 29.0583 37.0094 19.9812 37.0094H19.9746C17.019 37.0078 14.1203 36.2136 11.5924 34.7126L10.9908 34.3557L4.75745 35.991L6.42172 29.9117V29.9118Z" fill="url(#paint2_linear_338_1210)"/>
<path d="M15.0285 12.2341C14.6576 11.4092 14.2673 11.3925 13.9146 11.378C13.6257 11.3656 13.2955 11.3665 12.9657 11.3665C12.6355 11.3665 12.099 11.4908 11.6456 11.9863C11.1917 12.4822 9.9126 13.6805 9.9126 16.1179C9.9126 18.5554 11.6868 20.911 11.9341 21.2418C12.1817 21.5721 15.3592 26.7339 20.3915 28.7197C24.5737 30.37 25.4248 30.0418 26.3325 29.959C27.2404 29.8766 29.2618 28.7609 29.6743 27.6041C30.087 26.4474 30.087 25.4559 29.9632 25.2487C29.8395 25.0423 29.5093 24.9183 29.0142 24.6707C28.5189 24.4229 26.0849 23.2243 25.6311 23.059C25.1772 22.8938 24.8472 22.8113 24.517 23.3074C24.1868 23.8027 23.2387 24.9183 22.9497 25.2487C22.6611 25.5799 22.3721 25.6211 21.8771 25.3733C21.3817 25.1247 19.7872 24.6022 17.8955 22.9146C16.4237 21.6015 15.4301 19.9798 15.1412 19.4838C14.8524 18.9885 15.1103 18.72 15.3585 18.4731C15.581 18.2512 15.8538 17.8946 16.1016 17.6055C16.3485 17.3161 16.4309 17.1097 16.5959 16.7793C16.7612 16.4486 16.6785 16.1593 16.5549 15.9115C16.4309 15.6637 15.4688 13.2136 15.0285 12.2341Z" fill="white"/>
<defs>
<linearGradient id="paint0_linear_338_1210" x1="1921.55" y1="3862.92" x2="1921.55" y2="1.39252" gradientUnits="userSpaceOnUse">
<stop stop-color="#1FAF38"/>
<stop offset="1" stop-color="#60D669"/>
</linearGradient>
<linearGradient id="paint1_linear_338_1210" x1="1921.55" y1="3862.92" x2="1921.55" y2="1.39252" gradientUnits="userSpaceOnUse">
<stop stop-color="#1FAF38"/>
<stop offset="1" stop-color="#60D669"/>
</linearGradient>
<linearGradient id="paint2_linear_338_1210" x1="1989.78" y1="4000.7" x2="1989.78" y2="0.700195" gradientUnits="userSpaceOnUse">
<stop stop-color="#FAFAFB"/>
<stop offset="1" stop-color="#FAFAFB"/>
</linearGradient>
</defs>
</svg>
